<svg width="82" height="83" viewBox="0 0 82 83" fill="none" xmlns="http://www.w3.org/2000/svg">
<g filter="url(#filter0_d_119_29)">
<path d="M36.7021 0.538463C39.7938 0.280878 42.3644 0.51622 44.4138 1.24449C46.506 1.92425 48.3783 2.77965 50.0307 3.8107C51.029 4.40179 51.7399 4.43246 52.1632 3.90273C52.6294 3.32449 52.868 2.06846 52.8791 0.134647L54.4953 0C54.5532 1.65835 54.6674 3.67163 54.8377 6.03983C55.0081 8.40803 55.2716 11.5326 55.6281 15.4137L54.012 15.5483C53.5079 13.6574 53.064 12.1661 52.6805 11.0742C52.2929 9.93782 51.8514 8.98568 51.356 8.21784C50.9075 7.44609 50.3184 6.68606 49.5888 5.93773C47.9686 4.22973 46.0208 3.06596 43.7454 2.44642C41.4658 1.78228 39.1081 1.55168 36.6722 1.75463C34.3769 1.94586 32.3435 2.67716 30.5722 3.94851C28.8437 5.17134 27.3944 6.86536 26.2244 9.03058C25.1013 11.1919 24.2982 13.7536 23.8151 16.7156C23.3788 19.6738 23.3267 22.9595 23.6586 26.5729C24.0029 30.3201 24.7064 33.6103 25.7691 36.4436C26.8278 39.2322 28.1499 41.5494 29.7356 43.3951C31.3681 45.237 33.1918 46.5909 35.2066 47.4569C35.3673 47.5207 35.5286 47.5815 35.6905 47.6392L33.274 21.3359C33.1223 19.6853 32.8712 18.4926 32.5204 17.7576C32.1656 16.9781 31.5543 16.4896 30.6865 16.2922C29.8615 16.0463 28.6505 15.9673 27.0537 16.0554L26.9308 14.7172C27.9186 14.6798 29.2109 14.6171 30.8077 14.529C32.4045 14.4409 34.0695 14.3247 35.8028 14.1803C37.536 14.0359 39.1969 13.875 40.7855 13.6977C42.421 13.5165 43.7754 13.3587 44.8487 13.2243L44.9716 14.5626C43.383 14.7399 42.1815 15.0198 41.367 15.4023C40.5952 15.7363 40.1057 16.3165 39.8984 17.1429C39.687 17.9247 39.6571 19.1409 39.8087 20.7914L42.0587 45.282C42.1481 46.2548 42.2349 47.2725 42.3192 48.3348C44.2205 48.1016 46.1675 47.5391 48.1602 46.6474C50.3818 45.6532 52.0664 44.2092 53.2142 42.3156C54.1259 40.936 54.6994 39.4723 54.9348 37.9244C55.2171 36.3725 55.3972 34.2223 55.4751 31.4739L57.0912 31.3392C57.4642 35.3987 57.7888 38.6755 58.0652 41.1697C58.3374 43.6193 58.5983 45.6878 58.8477 47.3752L57.2316 47.5098C56.868 45.6072 56.4294 44.4301 55.9159 43.9784C55.4492 43.5228 54.7292 43.6502 53.7561 44.3606C52.1294 45.6649 50.3733 46.8451 48.4878 47.9012C46.9076 48.7652 44.8855 49.352 42.4213 49.6617C42.46 50.1789 42.4981 50.7061 42.5356 51.2432C42.6855 53.3883 42.7589 55.4724 42.756 57.4954C42.7999 59.5146 42.7041 61.2981 42.4687 62.8461C41.9592 66.0351 40.5105 68.7629 38.1226 71.0296C35.7857 73.337 32.5795 74.6605 28.504 75L28.3872 73.7286C30.4911 73.5084 32.2027 72.8713 33.522 71.8175C34.8881 70.7597 35.822 69.1086 36.3239 66.8642C36.8767 64.6605 36.9871 61.752 36.6551 58.1386L35.8835 49.7399C33.4858 49.4713 31.2439 48.8558 29.1576 47.8934C25.6554 46.2523 22.8015 43.7031 20.5958 40.2459C18.4369 36.7848 17.1238 32.5114 16.6566 27.426C16.1976 22.4297 16.7563 17.978 18.3326 14.0708C19.909 10.1636 22.2638 7.02312 25.3971 4.64937C28.5773 2.27173 32.3456 0.901425 36.7021 0.538463Z" fill="#54689A"/>
<path fill-rule="evenodd" clip-rule="evenodd" d="M14.0048 55.3089C12.9282 54.2483 11.2824 53.7181 9.06736 53.7181C8.72087 53.7181 8.27539 53.724 7.73091 53.7357C7.18643 53.7475 6.69764 53.7593 6.26453 53.7711C5.85617 53.7829 5.44163 53.7829 5.0209 53.7711C4.60016 53.7475 4.25986 53.7298 4 53.7181V54.0716C4.42073 54.0834 4.73628 54.1305 4.94665 54.213C5.16939 54.2837 5.31788 54.4251 5.39213 54.6372C5.46638 54.8376 5.5035 55.1557 5.5035 55.5917V64.3591C5.5035 64.7834 5.46638 65.1015 5.39213 65.3137C5.31788 65.5258 5.16939 65.6672 4.94665 65.7379C4.73628 65.8086 4.42073 65.8557 4 65.8793V66.2328C4.25986 66.2093 4.60016 66.1975 5.0209 66.1975C5.44163 66.1857 5.86855 66.1798 6.30166 66.1798C6.57389 66.1798 6.87088 66.1857 7.19262 66.1975C7.52673 66.1975 7.84847 66.2034 8.15783 66.2152C8.46719 66.2269 8.71468 66.2328 8.9003 66.2328C10.3234 66.2328 11.5361 65.9677 12.5384 65.4374C13.5407 64.9071 14.3018 64.1647 14.8215 63.2102C15.3536 62.2439 15.6196 61.1185 15.6196 59.834C15.6196 57.8661 15.0814 56.3577 14.0048 55.3089ZM7.48961 54.3367C7.66285 54.1364 8.03408 54.0362 8.60331 54.0362C9.89026 54.0362 10.905 54.2542 11.6474 54.6903C12.4023 55.1145 12.9406 55.7626 13.2623 56.6346C13.5964 57.4949 13.7635 58.5849 13.7635 59.9047C13.7635 61.1892 13.615 62.2792 13.318 63.1748C13.021 64.0704 12.5013 64.7539 11.7588 65.2253C11.0163 65.6849 9.97069 65.9147 8.62187 65.9147C8.05265 65.9147 7.67522 65.8145 7.48961 65.6142C7.31636 65.4138 7.22974 65.0073 7.22974 64.3945V55.5564C7.22974 54.9436 7.31636 54.5371 7.48961 54.3367Z" fill="black"/>
<path fill-rule="evenodd" clip-rule="evenodd" d="M24.2259 57.8366C23.6196 57.2003 22.7719 56.8821 21.683 56.8821C20.8415 56.8821 20.1052 57.0883 19.4741 57.5008C18.843 57.9014 18.3542 58.4789 18.0077 59.233C17.6612 59.9754 17.488 60.8651 17.488 61.9021C17.488 62.7977 17.6551 63.5932 17.9892 64.2884C18.3357 64.9719 18.8244 65.5081 19.4555 65.897C20.099 66.2859 20.8662 66.4803 21.7572 66.4803C22.3759 66.4803 22.9204 66.3683 23.3906 66.1444C23.8609 65.9088 24.2507 65.6083 24.56 65.243C24.8694 64.8777 25.0921 64.5006 25.2282 64.1117L24.857 63.9703C24.6466 64.4063 24.3992 64.7539 24.1145 65.0132C23.8299 65.2724 23.5206 65.461 23.1865 65.5788C22.8523 65.6849 22.4997 65.7379 22.1284 65.7379C21.6582 65.7379 21.2004 65.5906 20.7549 65.296C20.3218 64.9896 19.9691 64.5477 19.6968 63.9703C19.4246 63.3928 19.2885 62.7035 19.2885 61.9021C19.2885 61.69 19.2947 61.4779 19.3071 61.2658C19.3174 61.0885 19.3321 60.9235 19.3511 60.7709H25.154C25.154 59.4393 24.8446 58.4612 24.2259 57.8366ZM19.3216 60.435H23.3721C23.3968 59.8576 23.3473 59.3273 23.2236 58.8442C23.0998 58.3492 22.9018 57.9545 22.6296 57.6599C22.3697 57.3653 22.0294 57.2179 21.6087 57.2179C21.0395 57.2179 20.5321 57.489 20.0866 58.0311C19.6755 58.5457 19.4205 59.347 19.3216 60.435Z" fill="black"/>
<path d="M34.9723 57.4831V57.1296C34.7743 57.1414 34.5577 57.1531 34.3226 57.1649C34.0999 57.1767 33.8462 57.1826 33.5616 57.1826H33.0419C32.8934 57.1708 32.7387 57.1649 32.5778 57.1649C32.417 57.1531 32.2252 57.1414 32.0024 57.1296V57.4831C32.4479 57.5067 32.7758 57.5774 32.9862 57.6952C33.2089 57.8131 33.3327 57.9898 33.3574 58.2255C33.3945 58.4494 33.3327 58.7558 33.1718 59.1447L31.128 64.2494L28.8469 58.8795C28.6613 58.4199 28.5994 58.0959 28.6613 57.9073C28.7355 57.7188 28.8902 57.6068 29.1253 57.5715C29.3728 57.5243 29.6513 57.5008 29.9606 57.5008V57.1296C29.5894 57.1531 29.1872 57.1708 28.7541 57.1826C28.3334 57.1944 27.9312 57.2003 27.5476 57.2003C27.2382 57.2003 26.9474 57.1944 26.6752 57.1826C26.4153 57.159 26.1617 57.1414 25.9142 57.1296V57.5008C26.0503 57.5008 26.2112 57.5538 26.3968 57.6599C26.5948 57.7541 26.7928 58.0311 26.9907 58.4906L30.4061 66.3212H30.7217L33.7658 58.7204C33.939 58.2726 34.1246 57.9604 34.3226 57.7836C34.5206 57.6068 34.7372 57.5067 34.9723 57.4831Z" fill="black"/>
<path d="M52.3264 65.8793V66.2328C52.611 66.2093 52.9698 66.1975 53.4029 66.1975C53.836 66.1857 54.263 66.1798 54.6837 66.1798C55.1663 66.1798 55.618 66.1857 56.0387 66.1975C56.4594 66.1975 56.7997 66.2093 57.0596 66.2328V65.8793C56.6389 65.8557 56.3171 65.8086 56.0944 65.7379C55.884 65.6672 55.7417 65.5258 55.6675 65.3137C55.5932 65.1015 55.5561 64.7834 55.5561 64.3591V55.5917C55.5561 55.1557 55.5932 54.8376 55.6675 54.6372C55.7417 54.4251 55.884 54.2837 56.0944 54.213C56.3171 54.1305 56.6389 54.0834 57.0596 54.0716V53.7181C56.7997 53.7298 56.4594 53.7416 56.0387 53.7534C55.618 53.7652 55.1663 53.7711 54.6837 53.7711C54.263 53.7711 53.836 53.7652 53.4029 53.7534C52.9698 53.7416 52.611 53.7298 52.3264 53.7181V54.0716C52.7471 54.0834 53.0626 54.1305 53.273 54.213C53.4957 54.2837 53.6442 54.4251 53.7185 54.6372C53.7927 54.8376 53.8299 55.1557 53.8299 55.5917V59.7633H47.7973V55.5917C47.7973 55.1557 47.8344 54.8376 47.9087 54.6372C47.9829 54.4251 48.1252 54.2837 48.3356 54.213C48.5583 54.1305 48.8801 54.0834 49.3008 54.0716V53.7181C49.0162 53.7298 48.6573 53.7416 48.2242 53.7534C47.8035 53.7652 47.3766 53.7711 46.9435 53.7711C46.4608 53.7711 46.0092 53.7652 45.5884 53.7534C45.1677 53.7416 44.8274 53.7298 44.5676 53.7181V54.0716C44.9883 54.0834 45.3038 54.1305 45.5142 54.213C45.7369 54.2837 45.8854 54.4251 45.9597 54.6372C46.0339 54.8376 46.071 55.1557 46.071 55.5917V64.3591C46.071 64.7834 46.0339 65.1015 45.9597 65.3137C45.8854 65.5258 45.7369 65.6672 45.5142 65.7379C45.3038 65.8086 44.9883 65.8557 44.5676 65.8793V66.2328C44.8274 66.2093 45.1677 66.1975 45.5884 66.1975C46.0092 66.1857 46.4608 66.1798 46.9435 66.1798C47.3766 66.1798 47.8035 66.1857 48.2242 66.1975C48.6573 66.1975 49.0162 66.2093 49.3008 66.2328V65.8793C48.8801 65.8557 48.5583 65.8086 48.3356 65.7379C48.1252 65.6672 47.9829 65.5258 47.9087 65.3137C47.8344 65.1015 47.7973 64.7834 47.7973 64.3591V60.1169H53.8299V64.3591C53.8299 64.7834 53.7927 65.1015 53.7185 65.3137C53.6442 65.5258 53.4957 65.6672 53.273 65.7379C53.0626 65.8086 52.7471 65.8557 52.3264 65.8793Z" fill="black"/>
<path d="M66.6021 64.3238V56.9351C66.3298 57.0176 66.0267 57.0824 65.6926 57.1296C65.3708 57.1649 65.0305 57.1826 64.6717 57.1826C64.3004 57.1826 63.9168 57.1649 63.5208 57.1296V57.5008C64.0653 57.5008 64.4365 57.6304 64.6345 57.8896C64.8325 58.1371 64.9315 58.526 64.9315 59.0563V62.7153C64.9315 63.3162 64.8201 63.8583 64.5974 64.3415C64.387 64.8246 64.0901 65.2076 63.7064 65.4904C63.3352 65.7732 62.9083 65.9147 62.4257 65.9147C61.9802 65.9147 61.6585 65.8204 61.4605 65.6318C61.2625 65.4433 61.1387 65.1958 61.0892 64.8894C61.0397 64.583 61.015 64.2472 61.015 63.8819V56.9351C60.7428 57.0176 60.4396 57.0824 60.1055 57.1296C59.7837 57.1649 59.4434 57.1826 59.0846 57.1826C58.7133 57.1826 58.3297 57.1649 57.9337 57.1296V57.5008C58.4782 57.5008 58.8495 57.6304 59.0474 57.8896C59.2454 58.1371 59.3444 58.526 59.3444 59.0563V63.493C59.3444 64.0469 59.3877 64.5123 59.4744 64.8894C59.561 65.2665 59.7219 65.5729 59.957 65.8086C60.1673 66.0207 60.4334 66.1857 60.7551 66.3035C61.0769 66.4214 61.4543 66.4803 61.8874 66.4803C62.4814 66.4803 63.0568 66.3212 63.6136 66.003C64.1829 65.6731 64.6222 65.1251 64.9315 64.3591V66.4449C65.2038 66.3507 65.5007 66.2859 65.8225 66.2505C66.1566 66.2152 66.5031 66.1975 66.8619 66.1975C67.2456 66.1975 67.6292 66.2152 68.0128 66.2505V65.8793C67.4807 65.8793 67.1094 65.7556 66.8991 65.5081C66.7011 65.2488 66.6021 64.8541 66.6021 64.3238Z" fill="black"/>
<path fill-rule="evenodd" clip-rule="evenodd" d="M76.9977 58.0841C76.3294 57.2828 75.488 56.8821 74.4733 56.8821C73.6442 56.8821 72.9265 57.159 72.3201 57.7129C72.0104 58.0017 71.7629 58.3514 71.5776 58.762V52.3923C71.3054 52.4748 71.0022 52.5396 70.6681 52.5868C70.3464 52.6221 70.0061 52.6398 69.6472 52.6398C69.276 52.6398 68.8924 52.6221 68.4964 52.5868V52.958C69.0409 52.958 69.4121 53.0876 69.6101 53.3469C69.8081 53.5943 69.9071 53.9832 69.9071 54.5135V65.3667C69.9071 65.5435 69.8947 65.7202 69.87 65.897C69.8576 66.062 69.8267 66.2269 69.7771 66.3919L70.0927 66.5156C70.2659 66.3742 70.433 66.2387 70.5939 66.1091L71.0765 65.7202C71.188 65.6292 71.2969 65.5407 71.4032 65.4545C71.5958 65.6611 71.8148 65.838 72.0602 65.9854C72.6418 66.3153 73.242 66.4803 73.8607 66.4803C74.6032 66.4803 75.29 66.3035 75.9211 65.95C76.5522 65.5965 77.0534 65.0662 77.4246 64.3591C77.8082 63.6403 78 62.7506 78 61.69C78 60.0756 77.6659 58.8736 76.9977 58.0841ZM71.5776 65.2067C71.7938 65.4237 72.0351 65.6007 72.3015 65.7379C72.7594 65.9618 73.2296 66.0737 73.7122 66.0737C74.5413 66.0737 75.1601 65.7202 75.5684 65.0132C75.9891 64.2943 76.1995 63.1866 76.1995 61.69C76.1995 60.7355 76.1191 59.9401 75.9582 59.3037C75.7973 58.6674 75.5499 58.196 75.2157 57.8896C74.8816 57.5715 74.4547 57.4124 73.935 57.4124C73.3658 57.4124 72.8337 57.6599 72.3387 58.1548C71.9857 58.5082 71.732 58.9844 71.5776 59.5836V65.2067Z" fill="black"/>
</g>
<defs>
<filter id="filter0_d_119_29" x="0" y="0" width="82" height="83" filterUnits="userSpaceOnUse" color-interpolation-filters="sRGB">
<feFlood flood-opacity="0" result="BackgroundImageFix"/>
<feColorMatrix in="SourceAlpha" type="matrix" values="0 0 0 0 0 0 0 0 0 0 0 0 0 0 0 0 0 0 127 0" result="hardAlpha"/>
<feOffset dy="4"/>
<feGaussianBlur stdDeviation="2"/>
<feComposite in2="hardAlpha" operator="out"/>
<feColorMatrix type="matrix" values="0 0 0 0 0 0 0 0 0 0 0 0 0 0 0 0 0 0 0.25 0"/>
<feBlend mode="normal" in2="BackgroundImageFix" result="effect1_dropShadow_119_29"/>
<feBlend mode="normal" in="SourceGraphic" in2="effect1_dropShadow_119_29" result="shape"/>
</filter>
</defs>
</svg>
