<svg width="36" height="36" viewBox="0 0 36 36" fill="white" xmlns="http://www.w3.org/2000/svg">
<g clip-path="url(#clip0_105_79)">
<path d="M7.21375 11.9806C7.21375 12.3537 7.25375 12.6556 7.32375 12.8775C7.40375 13.0994 7.50312 13.3412 7.64312 13.6031C7.69312 13.6837 7.71312 13.7644 7.71312 13.835C7.71312 13.9356 7.65312 14.0362 7.52375 14.1375L6.895 14.5606C6.805 14.6212 6.71562 14.6512 6.63562 14.6512C6.53562 14.6512 6.43625 14.6006 6.33625 14.51C6.19625 14.3587 6.07687 14.1975 5.97687 14.0362C5.87687 13.865 5.7775 13.6737 5.6675 13.4419C4.88938 14.3687 3.91125 14.8325 2.73375 14.8325C1.89562 14.8325 1.22687 14.5906 0.738125 14.1069C0.249375 13.6231 0 12.9781 0 12.1719C0 11.3156 0.299375 10.62 0.908125 10.0962C1.51687 9.57249 2.325 9.30999 3.3525 9.30999C3.69187 9.30999 4.04125 9.33999 4.41 9.39062C4.77875 9.44124 5.15812 9.52187 5.5575 9.61249V8.87687C5.5575 8.11124 5.39812 7.57687 5.08875 7.26437C4.76937 6.95187 4.23062 6.80062 3.4625 6.80062C3.11312 6.80062 2.75437 6.84062 2.385 6.93187C2.01562 7.02249 1.65687 7.13312 1.3075 7.27437C1.14812 7.34499 1.02812 7.38499 0.958125 7.40562C0.888125 7.42562 0.838125 7.43562 0.79875 7.43562C0.65875 7.43562 0.589375 7.33499 0.589375 7.12312V6.62937C0.589375 6.46812 0.609375 6.34749 0.659375 6.27687C0.709375 6.20624 0.799375 6.13562 0.93875 6.06499C1.28812 5.88374 1.70687 5.73249 2.19625 5.61124C2.685 5.47999 3.20375 5.41999 3.7525 5.41999C4.94 5.41999 5.80812 5.69187 6.36687 6.23624C6.91562 6.78062 7.195 7.60687 7.195 8.71499V11.98L7.21375 11.9806ZM3.1625 13.5119C3.49187 13.5119 3.83125 13.4512 4.19 13.3306C4.54937 13.21 4.86875 12.9881 5.13812 12.6856C5.2975 12.4944 5.4175 12.2825 5.4775 12.0406C5.5375 11.7987 5.5775 11.5062 5.5775 11.1637V10.7406C5.28813 10.67 4.97875 10.6094 4.65937 10.5694C4.34 10.5294 4.03062 10.5087 3.72125 10.5087C3.0525 10.5087 2.56375 10.64 2.23437 10.9119C1.905 11.1837 1.74562 11.5669 1.74562 12.0706C1.74562 12.5444 1.86562 12.8969 2.115 13.1387C2.35437 13.3912 2.70375 13.5119 3.1625 13.5119ZM11.175 14.6006C10.9956 14.6006 10.8756 14.5706 10.7956 14.5C10.7156 14.4394 10.6462 14.2987 10.5862 14.1069L8.24125 6.31749C8.18125 6.11624 8.15125 5.98499 8.15125 5.91437C8.15125 5.75312 8.23125 5.66249 8.39062 5.66249H9.36875C9.55812 5.66249 9.68812 5.69249 9.75812 5.76312C9.83812 5.82374 9.8975 5.96437 9.9575 6.15624L11.6337 12.8275L13.19 6.15624C13.24 5.95499 13.3 5.82374 13.3794 5.76312C13.4594 5.70249 13.5987 5.66249 13.7787 5.66249H14.5769C14.7662 5.66249 14.8962 5.69249 14.9762 5.76312C15.0562 5.82374 15.1256 5.96437 15.1656 6.15624L16.7419 12.9081L18.4681 6.15624C18.5281 5.95499 18.5981 5.82374 18.6675 5.76312C18.7475 5.70249 18.8769 5.66249 19.0569 5.66249H19.985C20.1444 5.66249 20.2344 5.74312 20.2344 5.91437C20.2344 5.96499 20.2244 6.01499 20.2144 6.07562C20.2044 6.13624 20.1844 6.21687 20.1444 6.32749L17.74 14.1169C17.68 14.3181 17.61 14.4494 17.5306 14.51C17.4512 14.5706 17.3212 14.6106 17.1512 14.6106H16.2931C16.1037 14.6106 15.9737 14.5806 15.8937 14.51C15.8137 14.4394 15.7444 14.3087 15.7044 14.1069L14.1581 7.60687L12.6219 14.0969C12.5719 14.2981 12.5119 14.4294 12.4325 14.5C12.3525 14.5706 12.2131 14.6006 12.0331 14.6006H11.175ZM23.9962 14.8725C23.4775 14.8725 22.9587 14.8119 22.46 14.6912C21.9612 14.5706 21.5719 14.4394 21.3125 14.2881C21.1531 14.1975 21.0431 14.0969 21.0031 14.0062C20.9631 13.9156 20.9431 13.815 20.9431 13.7244V13.2106C20.9431 12.9987 21.0231 12.8981 21.1725 12.8981C21.2325 12.8981 21.2925 12.9081 21.3519 12.9281C21.4119 12.9481 21.5012 12.9887 21.6012 13.0287C21.9406 13.18 22.3094 13.3006 22.6987 13.3812C23.0981 13.4619 23.4869 13.5019 23.8862 13.5019C24.515 13.5019 25.0037 13.3912 25.3431 13.1694C25.6825 12.9475 25.8619 12.625 25.8619 12.2119C25.8619 11.93 25.7719 11.6981 25.5925 11.5062C25.4131 11.315 25.0737 11.1437 24.585 10.9825L23.1381 10.5287C22.41 10.2969 21.8712 9.95437 21.5419 9.50062C21.2125 9.05749 21.0431 8.56374 21.0431 8.03937C21.0431 7.61624 21.1331 7.24312 21.3125 6.92062C21.4919 6.59812 21.7319 6.31624 22.0306 6.09437C22.33 5.86249 22.6694 5.69124 23.0681 5.57062C23.4675 5.45062 23.8862 5.39999 24.3256 5.39999C24.545 5.39999 24.7744 5.40999 24.9944 5.43999C25.2237 5.46999 25.4331 5.51062 25.6431 5.55062C25.8425 5.60124 26.0325 5.65124 26.2119 5.71187C26.3912 5.77249 26.5312 5.83249 26.6312 5.89312C26.7712 5.97374 26.8706 6.05437 26.9306 6.14499C26.9906 6.22562 27.0206 6.33624 27.0206 6.47749V6.95124C27.0206 7.16312 26.9406 7.27374 26.7912 7.27374C26.7112 7.27374 26.5819 7.23374 26.4119 7.15312C25.8431 6.89124 25.2044 6.75999 24.4962 6.75999C23.9275 6.75999 23.4787 6.85062 23.1694 7.04187C22.86 7.23312 22.7006 7.52562 22.7006 7.93874C22.7006 8.22062 22.8006 8.46249 23 8.65437C23.1994 8.84562 23.5687 9.03749 24.0975 9.20874L25.5144 9.66249C26.2325 9.89437 26.7519 10.2169 27.0606 10.63C27.3694 11.0431 27.5194 11.5169 27.5194 12.0406C27.5194 12.4737 27.4294 12.8669 27.26 13.2094C27.0806 13.5519 26.8406 13.8544 26.5319 14.0962C26.2225 14.3481 25.8531 14.5294 25.4244 14.6606C24.9737 14.8019 24.505 14.8725 23.9962 14.8725Z" fill="#252F3E"/>
<path d="M27.1222 21.245C23.8397 23.6937 19.0703 24.9937 14.9691 24.9937C9.22221 24.9937 4.04346 22.8475 0.132211 19.28C-0.177164 18.9981 0.102211 18.615 0.471586 18.8369C4.70221 21.3156 9.92033 22.8175 15.3185 22.8175C18.9603 22.8175 22.9616 22.0519 26.6428 20.4794C27.1922 20.2275 27.661 20.8419 27.1222 21.245ZM28.4891 19.6731C28.0697 19.1287 25.7153 19.4112 24.6478 19.5419C24.3285 19.5819 24.2785 19.3 24.5678 19.0881C26.4435 17.7581 29.5266 18.1406 29.886 18.5844C30.2453 19.0381 29.786 22.1519 28.0303 23.6431C27.761 23.875 27.5016 23.7537 27.621 23.4519C28.0203 22.4544 28.9085 20.2069 28.4891 19.6731Z" fill="#ffffff"/>
</g>
<defs>
<clipPath id="clip0_105_79">
<rect width="36" height="36" fill="white"/>
</clipPath>
</defs>
</svg>
