<svg width="30" height="30" viewBox="0 0 30 30" fill="none" xmlns="http://www.w3.org/2000/svg">
<path d="M26.2031 6.65625L15.0938 2.85938C15 2.8125 14.9062 2.8125 14.8125 2.85938L3.79688 6.70313C3.60938 6.79688 3.46875 6.98438 3.46875 7.21875L5.20313 21.6562C5.20313 21.7969 5.29688 21.9375 5.4375 22.0312L14.7188 27.1406C14.7656 27.1875 14.8594 27.1875 14.9531 27.1875C15.0469 27.1875 15.0938 27.1875 15.1875 27.1406L24.5156 21.9844C24.6562 21.8906 24.75 21.7969 24.75 21.6094L26.4844 7.17188C26.5312 6.9375 26.4375 6.70312 26.2031 6.65625ZM23.9062 21.2344L15 26.1562L6.09375 21.3281L4.45312 7.5L14.9531 3.79688L25.5469 7.45312L23.9062 21.2344Z" fill="url(#paint0_linear_105_55)"/>
<path d="M5.8125 7.96875C5.625 8.0625 5.48438 8.25 5.48438 8.48438L6.9375 20.4844C6.9375 20.625 7.03125 20.7656 7.17188 20.8594L14.7188 24.9844C14.7656 25.0312 14.8594 25.0313 14.9531 25.0313C15.0469 25.0313 15.0938 25.0312 15.1875 24.9844L22.7812 20.7656C22.9219 20.6719 23.0156 20.5781 23.0156 20.3906L24.4688 8.4375C24.5156 8.20312 24.375 8.01562 24.1406 7.92187L15.0938 4.82812C15 4.78125 14.9062 4.78125 14.7656 4.82812L5.8125 7.96875ZM14.9531 5.76562L23.4844 8.71875L22.125 20.1094L14.9531 24.0938L7.875 20.1563L6.51562 8.76563L14.9531 5.76562Z" fill="url(#paint1_linear_105_55)"/>
<path d="M14.9531 6.65625L9.375 19.2188H11.4375L12.5625 16.4062H17.6719L18.8906 19.2188H20.9531L14.9531 6.65625ZM15 10.5L16.9219 14.5312H13.3125L15 10.5Z" fill="url(#paint2_linear_105_55)"/>
<defs>
<linearGradient id="paint0_linear_105_55" x1="15" y1="3.22125" x2="15" y2="23.6873" gradientUnits="userSpaceOnUse">
<stop stop-color="#1A6DFF"/>
<stop offset="1" stop-color="#C822FF"/>
</linearGradient>
<linearGradient id="paint1_linear_105_55" x1="14.9995" y1="3.22125" x2="14.9995" y2="23.6873" gradientUnits="userSpaceOnUse">
<stop stop-color="#1A6DFF"/>
<stop offset="1" stop-color="#C822FF"/>
</linearGradient>
<linearGradient id="paint2_linear_105_55" x1="15.1195" y1="6.99141" x2="15.1195" y2="18.7805" gradientUnits="userSpaceOnUse">
<stop stop-color="#6DC7FF"/>
<stop offset="1" stop-color="#E6ABFF"/>
</linearGradient>
</defs>
</svg>
