<svg width="36" height="36" viewBox="0 0 36 36" fill="none" xmlns="http://www.w3.org/2000/svg">
<path d="M31.4437 7.98751L18.1125 3.43126C18 3.37501 17.8875 3.37501 17.775 3.43126L4.55625 8.04376C4.33125 8.15626 4.1625 8.38126 4.1625 8.66251L6.24375 25.9875C6.24375 26.1563 6.35625 26.325 6.525 26.4375L17.6625 32.5688C17.7187 32.625 17.8312 32.625 17.9437 32.625C18.0562 32.625 18.1125 32.625 18.225 32.5688L29.4187 26.3813C29.5875 26.2688 29.7 26.1563 29.7 25.9313L31.7812 8.60626C31.8375 8.32501 31.725 8.04376 31.4437 7.98751ZM28.6875 25.4813L18 31.3875L7.3125 25.5938L5.34375 9.00001L17.9437 4.55626L30.6562 8.94376L28.6875 25.4813Z" fill="url(#paint0_linear_105_55)"/>
<path d="M6.975 9.56249C6.75 9.67499 6.58125 9.89999 6.58125 10.1812L8.325 24.5812C8.325 24.75 8.4375 24.9187 8.60625 25.0312L17.6625 29.9812C17.7188 30.0375 17.8313 30.0375 17.9438 30.0375C18.0563 30.0375 18.1125 30.0375 18.225 29.9812L27.3375 24.9187C27.5062 24.8062 27.6187 24.6937 27.6187 24.4687L29.3625 10.125C29.4188 9.84374 29.25 9.61874 28.9687 9.50624L18.1125 5.79374C18 5.73749 17.8875 5.73749 17.7187 5.79374L6.975 9.56249ZM17.9438 6.91874L28.1812 10.4625L26.55 24.1312L17.9438 28.9125L9.45 24.1875L7.81875 10.5187L17.9438 6.91874Z" fill="url(#paint1_linear_105_55)"/>
<path d="M17.9437 7.9875L11.25 23.0625H13.725L15.075 19.6875H21.2063L22.6687 23.0625H25.1438L17.9437 7.9875ZM18 12.6L20.3062 17.4375H15.975L18 12.6Z" fill="url(#paint2_linear_105_55)"/>
<defs>
<linearGradient id="paint0_linear_105_55" x1="18" y1="3.86551" x2="18" y2="28.4248" gradientUnits="userSpaceOnUse">
<stop stop-color="#1A6DFF"/>
<stop offset="1" stop-color="#C822FF"/>
</linearGradient>
<linearGradient id="paint1_linear_105_55" x1="17.9994" y1="3.86549" x2="17.9994" y2="28.4248" gradientUnits="userSpaceOnUse">
<stop stop-color="#1A6DFF"/>
<stop offset="1" stop-color="#C822FF"/>
</linearGradient>
<linearGradient id="paint2_linear_105_55" x1="18.1434" y1="8.38969" x2="18.1434" y2="22.5366" gradientUnits="userSpaceOnUse">
<stop stop-color="#6DC7FF"/>
<stop offset="1" stop-color="#E6ABFF"/>
</linearGradient>
</defs>
</svg>
