<svg width="30" height="30" viewBox="0 0 30 30" fill="none" xmlns="http://www.w3.org/2000/svg">
<path d="M15 22.0312C12.9975 22.0312 11.2927 21.5906 10.6214 20.9723C10.47 22.0669 10.4287 24.0225 11.7187 25.3125C11.7187 25.3125 12.007 23.52 13.3594 23.9062C14.1797 24.1406 13.9453 25.3125 13.9453 26.1914C13.9453 26.6602 14.0625 27.6562 15.9375 28.5937C15.9375 28.5937 15 26.25 17.8125 24.8437C19.7803 23.8598 19.6823 21.9609 19.4466 20.9077C18.8273 21.5602 17.0723 22.0312 15 22.0312Z" fill="url(#paint0_linear_105_65)"/>
<path d="M23.9063 19.6875C23.8598 19.6875 23.8139 19.6805 23.7684 19.6669L17.6747 17.7919C17.5163 17.7431 17.3953 17.6142 17.3564 17.453L14.9644 7.48781L12.1702 17.4703C12.128 17.6198 12.0145 17.7394 11.8673 17.7886L6.24235 19.6636C6.07594 19.7198 5.89313 19.6772 5.76797 19.5562C5.64235 19.4344 5.595 19.2534 5.64422 19.0856L10.8005 1.74188C10.86 1.54266 11.0428 1.40625 11.25 1.40625H18.75C18.9572 1.40625 19.14 1.54266 19.1995 1.74141L24.3558 19.0852C24.4045 19.2511 24.3591 19.4302 24.2363 19.552C24.1472 19.6397 24.0281 19.6875 23.9063 19.6875ZM18.2058 16.9744L23.2078 18.5133L18.4003 2.34375H11.5997L6.79969 18.4894L11.3348 16.9772L14.0625 7.23562C14.1792 6.81797 14.557 6.55547 14.9827 6.55078C15.4163 6.55922 15.7753 6.84797 15.8766 7.26937L18.2058 16.9744Z" fill="url(#paint1_linear_105_65)"/>
<path d="M15.9356 29.062C15.8648 29.062 15.7936 29.0461 15.728 29.0133C14.2341 28.2661 13.4766 27.3169 13.4766 26.1914C13.4766 26.0269 13.4845 25.853 13.492 25.6762C13.5244 24.9567 13.5248 24.4406 13.2305 24.3572C12.9525 24.277 12.8002 24.3445 12.7102 24.4012C12.3736 24.6155 12.2119 25.1995 12.1814 25.3875C12.1533 25.5609 12.0305 25.7048 11.8627 25.7587C11.6958 25.8141 11.5116 25.7686 11.3869 25.6444C9.94594 24.2034 9.9975 22.0589 10.1569 20.9086C10.1808 20.7356 10.2989 20.5903 10.4625 20.5312C10.6266 20.4727 10.8098 20.5092 10.9387 20.6278C11.4277 21.0778 12.9066 21.5625 15 21.5625C17.0873 21.5625 18.6455 21.0708 19.1062 20.5847C19.2253 20.4591 19.4039 20.4098 19.5708 20.4558C19.7377 20.5017 19.8656 20.6362 19.9036 20.805C20.3541 22.815 19.6683 24.4397 18.022 25.2633C15.6872 26.4305 16.2966 28.2225 16.3734 28.4227C16.4428 28.6031 16.395 28.8094 16.2516 28.9397C16.1634 29.0198 16.05 29.062 15.9356 29.062ZM12.9956 23.3836C13.155 23.3836 13.32 23.4075 13.4883 23.4553C14.5177 23.7497 14.4666 24.8878 14.4291 25.7184C14.4216 25.8806 14.4145 26.0405 14.4145 26.1914C14.4145 26.4145 14.4145 27.0052 15.3267 27.6806C15.3258 26.7352 15.7078 25.3725 17.603 24.4247C18.8789 23.7867 19.1602 22.703 19.095 21.7242C18.1584 22.2075 16.6669 22.5 15 22.5C13.4147 22.5 11.9639 22.2286 11.0208 21.7795C10.9917 22.5577 11.0864 23.5266 11.5612 24.3436C11.7056 24.0727 11.9128 23.7975 12.2072 23.6105C12.4439 23.4595 12.7106 23.3836 12.9956 23.3836Z" fill="url(#paint2_linear_105_65)"/>
<path d="M17.7009 3.28125H12.299L8.21155 17.0306L10.5661 16.2455L13.1597 6.98297C13.3861 6.17297 14.1145 5.62219 14.9728 5.61328H14.9869L15.0009 5.61375C15.8681 5.63016 16.5862 6.20766 16.7887 7.05094L18.9933 16.2361L21.8109 17.1028L17.7009 3.28125Z" fill="url(#paint3_linear_105_65)"/>
<defs>
<linearGradient id="paint0_linear_105_65" x1="15.0586" y1="20.8941" x2="15.0586" y2="28.5398" gradientUnits="userSpaceOnUse">
<stop stop-color="#8AB4FF"/>
<stop offset="1" stop-color="#E492FF"/>
</linearGradient>
<linearGradient id="paint1_linear_105_65" x1="15" y1="1.32375" x2="15" y2="29.2622" gradientUnits="userSpaceOnUse">
<stop stop-color="#1A6DFF"/>
<stop offset="1" stop-color="#C822FF"/>
</linearGradient>
<linearGradient id="paint2_linear_105_65" x1="15.0591" y1="1.32375" x2="15.0591" y2="29.2622" gradientUnits="userSpaceOnUse">
<stop stop-color="#1A6DFF"/>
<stop offset="1" stop-color="#C822FF"/>
</linearGradient>
<linearGradient id="paint3_linear_105_65" x1="15.0108" y1="3.25687" x2="15.0108" y2="17.0053" gradientUnits="userSpaceOnUse">
<stop stop-color="#8AB4FF"/>
<stop offset="1" stop-color="#E492FF"/>
</linearGradient>
</defs>
</svg>
