<svg width="36" height="36" viewBox="0 0 36 36" fill="none" xmlns="http://www.w3.org/2000/svg">
<path d="M18 26.4375C15.597 26.4375 13.5512 25.9088 12.7457 25.1668C12.564 26.4803 12.5145 28.827 14.0625 30.375C14.0625 30.375 14.4084 28.224 16.0313 28.6875C17.0156 28.9687 16.7344 30.375 16.7344 31.4297C16.7344 31.9922 16.875 33.1875 19.125 34.3125C19.125 34.3125 18 31.5 21.375 29.8125C23.7364 28.6318 23.6188 26.3531 23.3359 25.0892C22.5928 25.8722 20.4868 26.4375 18 26.4375Z" fill="url(#paint0_linear_105_65)"/>
<path d="M28.6875 23.625C28.6318 23.625 28.5767 23.6166 28.5221 23.6002L21.2096 21.3502C21.0195 21.2917 20.8744 21.1371 20.8277 20.9436L17.9572 8.98537L14.6042 20.9644C14.5536 21.1438 14.4174 21.2872 14.2408 21.3463L7.49081 23.5963C7.29112 23.6638 7.07175 23.6126 6.92156 23.4675C6.77081 23.3212 6.714 23.1041 6.77306 22.9027L12.9606 2.09025C13.032 1.85119 13.2514 1.6875 13.5 1.6875H22.5C22.7486 1.6875 22.968 1.85119 23.0394 2.08969L29.2269 22.9022C29.2854 23.1013 29.2309 23.3162 29.0835 23.4624C28.9766 23.5676 28.8337 23.625 28.6875 23.625ZM21.8469 20.3692L27.8494 22.2159L22.0804 2.8125H13.9196L8.15962 22.1872L13.6018 20.3726L16.875 8.68275C17.0151 8.18156 17.4684 7.86656 17.9792 7.86094C18.4995 7.87106 18.9304 8.21756 19.0519 8.72325L21.8469 20.3692Z" fill="url(#paint1_linear_105_65)"/>
<path d="M19.1227 34.8744C19.0378 34.8744 18.9523 34.8553 18.8736 34.8159C17.0809 33.9193 16.1719 32.7802 16.1719 31.4297C16.1719 31.2322 16.1814 31.0236 16.1904 30.8115C16.2293 29.9481 16.2298 29.3287 15.8766 29.2286C15.543 29.1324 15.3602 29.2134 15.2522 29.2815C14.8483 29.5386 14.6542 30.2394 14.6177 30.465C14.5839 30.6731 14.4366 30.8458 14.2352 30.9105C14.0349 30.9769 13.8139 30.9223 13.6643 30.7732C11.9351 29.0441 11.997 26.4707 12.1882 25.0903C12.2169 24.8827 12.3587 24.7084 12.555 24.6375C12.7519 24.5672 12.9718 24.6111 13.1265 24.7534C13.7132 25.2934 15.4879 25.875 18 25.875C20.5048 25.875 22.3746 25.2849 22.9275 24.7016C23.0704 24.5509 23.2847 24.4918 23.4849 24.5469C23.6852 24.6021 23.8387 24.7635 23.8843 24.966C24.4249 27.378 23.6019 29.3276 21.6264 30.3159C18.8246 31.7166 19.5559 33.867 19.6481 34.1072C19.7314 34.3237 19.674 34.5712 19.5019 34.7276C19.3961 34.8238 19.26 34.8744 19.1227 34.8744ZM15.5948 28.0603C15.786 28.0603 15.984 28.089 16.1859 28.1464C17.4212 28.4996 17.3599 29.8654 17.3149 30.8621C17.3059 31.0567 17.2974 31.2486 17.2974 31.4297C17.2974 31.6974 17.2974 32.4062 18.3921 33.2167C18.3909 32.0822 18.8494 30.447 21.1236 29.3096C22.6547 28.5441 22.9922 27.2436 22.914 26.0691C21.7901 26.649 20.0002 27 18 27C16.0976 27 14.3567 26.6743 13.2249 26.1354C13.1901 27.0692 13.3037 28.2319 13.8735 29.2123C14.0467 28.8872 14.2954 28.557 14.6486 28.3326C14.9327 28.1514 15.2528 28.0603 15.5948 28.0603Z" fill="url(#paint2_linear_105_65)"/>
<path d="M21.2411 3.9375H14.7589L9.85387 20.4368L12.6793 19.4946L15.7916 8.37956C16.0633 7.40756 16.9374 6.74663 17.9674 6.73594H17.9842L18.0011 6.7365C19.0417 6.75619 19.9035 7.44919 20.1465 8.46112L22.7919 19.4833L26.1731 20.5234L21.2411 3.9375Z" fill="url(#paint3_linear_105_65)"/>
<defs>
<linearGradient id="paint0_linear_105_65" x1="18.0703" y1="25.0729" x2="18.0703" y2="34.2478" gradientUnits="userSpaceOnUse">
<stop stop-color="#8AB4FF"/>
<stop offset="1" stop-color="#E492FF"/>
</linearGradient>
<linearGradient id="paint1_linear_105_65" x1="18" y1="1.5885" x2="18" y2="35.1146" gradientUnits="userSpaceOnUse">
<stop stop-color="#1A6DFF"/>
<stop offset="1" stop-color="#C822FF"/>
</linearGradient>
<linearGradient id="paint2_linear_105_65" x1="18.0709" y1="1.58849" x2="18.0709" y2="35.1146" gradientUnits="userSpaceOnUse">
<stop stop-color="#1A6DFF"/>
<stop offset="1" stop-color="#C822FF"/>
</linearGradient>
<linearGradient id="paint3_linear_105_65" x1="18.0129" y1="3.90825" x2="18.0129" y2="20.4064" gradientUnits="userSpaceOnUse">
<stop stop-color="#8AB4FF"/>
<stop offset="1" stop-color="#E492FF"/>
</linearGradient>
</defs>
</svg>
