<svg width="36" height="36" viewBox="0 0 94 57" fill="none" xmlns="http://www.w3.org/2000/svg">
<path d="M17.4466 0.0420044C13.1966 0.0420044 8.88193 1.69923 8.16318 2.60548C7.97568 2.98048 7.54087 6.01124 8.57212 6.01124C8.91587 6.01124 9.07358 6.07105 10.0736 5.6023C13.8236 4.13355 16.1996 4.16798 16.5433 4.16798C20.7621 3.76173 23.1988 6.6382 22.8238 10.3569V12.542C19.2613 11.6983 17.2259 11.6692 16.2259 11.6692C11.0384 11.3567 6.24668 14.0918 6.24668 20.1043C6.24668 26.698 12.1319 28.1082 14.4132 28.0144C17.8194 28.0457 21.0704 26.5142 23.2267 23.8579C24.9454 27.7017 26.0396 27.4468 26.0709 27.4468C26.3834 27.4468 26.6327 27.3223 26.8827 27.166L28.6649 25.9148C28.9774 25.7273 29.2257 25.417 29.2569 25.042C29.2257 24.1358 27.5999 22.7295 27.7249 19.5733V9.82594C27.9124 7.13844 27.0411 4.50856 25.2286 2.47731C23.0724 0.664807 20.2279 -0.207996 17.4466 0.0420044ZM77.9874 0.0420044C71.7374 0.0420044 68.1463 3.94679 68.2401 7.91554C68.2401 13.353 73.7369 15.0767 74.3619 15.2642C79.6432 16.9204 80.3639 16.9805 81.8326 18.2305C83.0826 19.5117 82.9256 22.0134 81.0819 23.1072C80.5506 23.4197 78.2669 24.7922 73.1107 23.7297C71.3919 23.386 70.4886 22.9807 69.0824 22.387C68.7074 22.262 67.8312 22.0425 67.8312 23.1987V24.7307C67.8312 25.4495 68.2674 26.1028 68.9237 26.4153C72.2049 28.0715 76.1427 28.1365 76.9864 28.1365C77.1114 28.1365 84.297 28.1403 86.7032 23.2903C87.2001 22.2903 88.4869 18.6394 86.0807 15.5144C84.0807 13.1707 82.3617 12.9204 77.2367 11.3579C76.7992 11.2329 73.0184 10.2605 73.0497 7.60426C72.8622 4.19801 77.4886 4.01393 78.4574 4.07643C82.3636 4.01393 84.2979 5.47804 85.3604 5.57179C85.8292 5.57179 86.0501 5.29347 86.0501 4.66847V3.22804C86.0814 2.88429 85.9569 2.54493 85.7694 2.26368C84.5194 0.638684 79.7374 0.0420044 77.9874 0.0420044ZM30.5509 0.823254C30.2071 0.885754 29.9574 1.23024 30.0199 1.57399C30.0824 1.98024 30.1444 2.38844 30.3006 2.79469L37.3014 25.8843C37.4576 26.6343 37.9532 27.4497 39.047 27.3247H41.6104C43.1729 27.481 43.3919 25.9795 43.4232 25.8233L48.0191 6.57277L52.6761 25.8538C52.7074 26.01 52.9271 27.5115 54.4583 27.3552H57.0523C58.1773 27.4802 58.7088 26.6648 58.8651 25.9148C66.7401 0.571057 66.2062 2.29396 66.2687 2.04396C66.3937 0.731457 65.6429 0.822522 65.5179 0.853772H62.7347C61.3285 0.697522 61.0516 1.9817 60.9891 2.2942L55.8011 22.3259L51.1136 2.2942C50.8949 0.762951 49.6439 0.822522 49.3314 0.853772H46.9266C45.5516 0.728772 45.2076 1.82545 45.1139 2.2942L40.4569 22.0452L35.4581 2.2942C35.3331 1.6692 34.9251 0.698254 33.7064 0.823254H30.5509ZM17.2574 15.2947C19.5074 15.3259 21.4496 15.6658 22.7933 15.9783C22.7933 17.5408 22.8502 18.4172 22.5064 19.8235C22.0689 21.3235 20.1353 24.0457 15.5728 24.1082C12.9478 24.2332 11.2296 22.1672 11.3858 19.8235C11.2296 16.0735 15.1012 15.1384 17.2574 15.2947ZM87.6249 34.3926C84.7081 34.4332 81.2652 35.0866 78.6527 36.9194C77.8464 37.4788 77.9877 38.2555 78.8846 38.1524C81.8221 37.7992 88.3604 37.0065 89.5292 38.5003C90.701 39.994 88.2333 46.1566 87.1427 48.9129C86.8052 49.7347 87.5187 50.075 88.2718 49.45C93.1593 45.3562 94.4293 36.7744 93.4293 35.5401C92.9277 34.9229 90.5417 34.352 87.6249 34.3926ZM0.674168 37.5176C-0.00727787 37.6113 -0.300784 38.4751 0.411716 39.1594C12.6523 50.6407 28.8269 56.2615 46.7862 56.2615C59.5956 56.2615 74.4662 52.082 84.7318 44.207C86.4287 42.8977 84.9832 40.9357 83.2425 41.7107C71.7332 46.7888 59.2325 49.2363 47.8543 49.2363C30.9918 49.2363 14.6678 45.7159 1.46152 37.719C1.17246 37.544 0.901316 37.4863 0.674168 37.5176Z" fill="white"/>
</svg>
