<svg width="30" height="30" viewBox="0 0 30 30" fill="none" xmlns="http://www.w3.org/2000/svg">
<path d="M23.1656 5.48906L21.6563 22.7484L14.9531 24.5859L8.33439 22.7062L6.77814 5.48906H23.1656Z" fill="url(#paint0_linear_105_87)"/>
<path d="M8.97797 8.14548H20.8144L19.77 20.0316L14.9461 21.623L10.1714 20.2303L9.87328 16.7991H12.1111L12.4097 18.5892L14.9958 19.2853L17.6316 18.4899L17.8303 15.4064L9.7739 15.4561L9.57469 13.0191H18.0792L18.2283 10.4827L9.22687 10.433L8.97797 8.14548Z" fill="white"/>
<path d="M24.7392 4.04766C24.6637 3.96423 24.5564 3.91641 24.4448 3.91641H5.49468C5.38311 3.91641 5.27999 3.96423 5.20405 4.04766C5.12811 4.1311 5.08874 4.24266 5.10046 4.35001L6.83905 23.6461C6.85499 23.8134 6.9703 23.9484 7.12968 23.9963L14.8364 26.1844C14.872 26.1924 14.9081 26.1961 14.948 26.1961C14.9798 26.1961 15.0155 26.1924 15.0516 26.1844L22.8576 24.0441C23.0208 24.0005 23.1361 23.8613 23.152 23.6981L24.8428 4.35001C24.8508 4.23844 24.8147 4.1311 24.7392 4.04766ZM14.55 25.2731L7.60733 23.3039L5.93249 4.71188H14.55V7.74751H8.97608C8.86452 7.74751 8.75718 7.79532 8.68171 7.87876C8.60624 7.96219 8.57015 8.06954 8.57811 8.1811L8.80077 10.5164C8.82046 10.7231 8.99155 10.8783 9.19874 10.8783H14.55V12.6211H9.4378C9.32624 12.6211 9.2189 12.6689 9.14343 12.7524C9.06796 12.8358 9.03186 12.9431 9.03983 13.0547L9.26671 15.442C9.2864 15.6488 9.45749 15.8039 9.66468 15.8039H14.55V18.7163L12.728 18.1833L12.5569 16.6036C12.5372 16.4006 12.3661 16.2497 12.1631 16.2497H9.78374C9.67218 16.2497 9.56483 16.2975 9.48936 16.3809C9.4139 16.4644 9.3778 16.5717 9.38577 16.6833L9.72374 20.2641C9.73968 20.4272 9.85499 20.5664 10.0144 20.61L14.55 21.907V25.2731ZM15.3459 15.8044H17.4464L17.2556 18.1317L15.3459 18.6886V15.8044ZM15.0075 19.6158L15.3455 19.5164L17.7408 18.8203C17.8997 18.7725 18.0112 18.6333 18.0272 18.4702L18.2737 15.4383C18.2817 15.3267 18.2419 15.2194 18.1701 15.1359C18.0947 15.0563 17.9873 15.0084 17.8758 15.0084H15.3455H14.55H10.0266L9.87515 13.417H14.55H15.3459H18.0712C18.278 13.417 18.4491 13.2577 18.4692 13.0509L18.6759 10.5127C18.6839 10.4011 18.6441 10.2938 18.5723 10.2103C18.4969 10.1306 18.3895 10.0828 18.278 10.0828H15.3459H14.55H9.56108L9.4139 8.54298H14.55H15.3459H20.4745L19.4001 19.9219L15.3459 21.1036L14.9958 21.2072L14.55 21.0797L10.492 19.9219L10.2216 17.0452H11.805L11.9681 18.533C11.9841 18.6924 12.0956 18.8274 12.2508 18.8709L14.5505 19.5474L14.7853 19.6149C14.8566 19.6355 14.9358 19.6355 15.0075 19.6158ZM15.3459 10.8788H17.8486L17.7051 12.6216H15.3459V10.8788ZM22.38 23.3517L15.3459 25.2774V21.9352L19.8816 20.6105C20.0367 20.5669 20.152 20.4277 20.168 20.2645L21.3098 8.18157C21.3178 8.07001 21.2822 7.96266 21.2062 7.87923C21.1308 7.79579 21.0234 7.74798 20.9119 7.74798H15.3459V4.71235H24.0112L22.38 23.3517Z" fill="url(#paint1_linear_105_87)"/>
<defs>
<linearGradient id="paint0_linear_105_87" x1="14.9719" y1="4.00031" x2="14.9719" y2="26.3344" gradientUnits="userSpaceOnUse">
<stop stop-color="#6DC7FF"/>
<stop offset="0.492" stop-color="#AAB9FF"/>
<stop offset="1" stop-color="#E6ABFF"/>
</linearGradient>
<linearGradient id="paint1_linear_105_87" x1="14.9714" y1="1.50657" x2="14.9714" y2="27.3084" gradientUnits="userSpaceOnUse">
<stop stop-color="#1A6DFF"/>
<stop offset="1" stop-color="#C822FF"/>
</linearGradient>
</defs>
</svg>
