<svg width="36" height="36" viewBox="0 0 36 36" fill="none" xmlns="http://www.w3.org/2000/svg">
<g clip-path="url(#clip0_105_87)">
<path d="M27.7988 6.58687L25.9875 27.2981L17.9438 29.5031L10.0013 27.2475L8.13375 6.58687H27.7988Z" fill="url(#paint0_linear_105_87)"/>
<path d="M10.7736 9.77457H24.9773L23.724 24.0379L17.9353 25.9476L12.2057 24.2764L11.8479 20.1589H14.5333L14.8916 22.3071L17.9949 23.1424L21.1579 22.1878L21.3964 18.4877L11.7287 18.5473L11.4896 15.6229H21.6951L21.8739 12.5792L11.0723 12.5196L10.7736 9.77457Z" fill="white"/>
<path d="M29.6871 4.85719C29.5965 4.75707 29.4677 4.69969 29.3338 4.69969H6.59363C6.45975 4.69969 6.336 4.75707 6.24488 4.85719C6.15375 4.95732 6.1065 5.09119 6.12056 5.22L8.20688 28.3753C8.226 28.5761 8.36438 28.7381 8.55563 28.7955L17.8037 31.4213C17.8464 31.4308 17.8898 31.4353 17.9376 31.4353C17.9758 31.4353 18.0186 31.4308 18.0619 31.4213L27.4292 28.8529C27.6249 28.8006 27.7633 28.6335 27.7824 28.4378L29.8114 5.22C29.8209 5.08613 29.7776 4.95732 29.6871 4.85719ZM17.46 30.3278L9.12881 27.9647L7.119 5.65425H17.46V9.297H10.7713C10.6374 9.297 10.5086 9.35438 10.4181 9.45451C10.3275 9.55463 10.2842 9.68344 10.2938 9.81732L10.5609 12.6197C10.5846 12.8678 10.7899 13.0539 11.0385 13.0539H17.46V15.1453H11.3254C11.1915 15.1453 11.0627 15.2027 10.9721 15.3028C10.8816 15.4029 10.8383 15.5318 10.8478 15.6656L11.1201 18.5304C11.1437 18.7785 11.349 18.9647 11.5976 18.9647H17.46V22.4595L15.2736 21.8199L15.0683 19.9243C15.0446 19.6808 14.8393 19.4996 14.5958 19.4996H11.7405C11.6066 19.4996 11.4778 19.557 11.3873 19.6571C11.2967 19.7573 11.2534 19.8861 11.2629 20.0199L11.6685 24.3169C11.6876 24.5126 11.826 24.6797 12.0173 24.732L17.46 26.2884V30.3278ZM18.4151 18.9653H20.9357L20.7068 21.7581L18.4151 22.4263V18.9653ZM18.009 23.5389L18.4146 23.4197L21.2889 22.5844C21.4796 22.527 21.6135 22.3599 21.6326 22.1642L21.9285 18.5259C21.9381 18.3921 21.8903 18.2633 21.8042 18.1631C21.7136 18.0675 21.5848 18.0101 21.4509 18.0101H18.4146H17.46H12.0319L11.8502 16.1004H17.46H18.4151H21.6855C21.9336 16.1004 22.1389 15.9092 22.1631 15.6611L22.4111 12.6152C22.4207 12.4813 22.3729 12.3525 22.2868 12.2524C22.1963 12.1568 22.0674 12.0994 21.9336 12.0994H18.4151H17.46H11.4733L11.2967 10.2516H17.46H18.4151H24.5694L23.2802 23.9063L18.4151 25.3243L17.9949 25.4486L17.46 25.2956L12.5904 23.9063L12.2659 20.4542H14.166L14.3618 22.2396C14.3809 22.4308 14.5148 22.5928 14.7009 22.6451L17.4606 23.4568L17.7424 23.5378C17.8279 23.5626 17.9229 23.5626 18.009 23.5389ZM18.4151 13.0545H21.4183L21.2462 15.1459H18.4151V13.0545ZM26.856 28.0221L18.4151 30.3328V26.3222L23.8579 24.7326C24.0441 24.6803 24.1824 24.5132 24.2016 24.3174L25.5718 9.81788C25.5814 9.68401 25.5386 9.55519 25.4475 9.45507C25.3569 9.35494 25.2281 9.29757 25.0943 9.29757H18.4151V5.65482H28.8135L26.856 28.0221Z" fill="url(#paint1_linear_105_87)"/>
</g>
<defs>
<linearGradient id="paint0_linear_105_87" x1="17.9663" y1="4.80037" x2="17.9663" y2="31.6012" gradientUnits="userSpaceOnUse">
<stop stop-color="#6DC7FF"/>
<stop offset="0.492" stop-color="#AAB9FF"/>
<stop offset="1" stop-color="#E6ABFF"/>
</linearGradient>
<linearGradient id="paint1_linear_105_87" x1="17.9657" y1="1.80788" x2="17.9657" y2="32.7701" gradientUnits="userSpaceOnUse">
<stop stop-color="#1A6DFF"/>
<stop offset="1" stop-color="#C822FF"/>
</linearGradient>
<clipPath id="clip0_105_87">
<rect width="36" height="36" fill="white"/>
</clipPath>
</defs>
</svg>
