<svg width="36" height="36" viewBox="0 0 36 36" fill="none" xmlns="http://www.w3.org/2000/svg">
<path d="M29.9903 4.68225C29.8839 4.56638 29.7332 4.5 29.5757 4.5H7.65281C7.18031 4.5 6.72694 4.69969 6.408 5.04844C6.08906 5.39719 5.92988 5.86575 5.97206 6.336L7.83844 27.4933C7.89975 28.1846 8.38913 28.7764 9.05625 28.9671L17.5359 31.3903C17.6878 31.4331 17.8436 31.455 17.9994 31.455C18.1553 31.455 18.3116 31.4331 18.4629 31.3903L26.9426 28.9671C27.6097 28.7764 28.0991 28.1841 28.1604 27.4927L30.1354 5.112C30.15 4.95506 30.0971 4.79869 29.9903 4.68225ZM27.0405 27.3932C27.0197 27.6278 26.8605 27.8207 26.6344 27.8848L18.1547 30.3081C18.0534 30.3379 17.946 30.3379 17.8448 30.3081L9.36506 27.8848C9.1395 27.8207 8.97975 27.6278 8.95894 27.3938L7.09256 6.237C7.0785 6.07781 7.12969 5.92537 7.23825 5.80781C7.34625 5.68969 7.49306 5.625 7.65281 5.625H28.9614L27.0405 27.3932Z" fill="url(#paint0_linear_105_91)"/>
<path d="M10.4181 27.0158L17.8459 29.1381C17.8965 29.1521 17.9482 29.1594 18 29.1594C18.0517 29.1594 18.1041 29.1521 18.1541 29.1381L25.5819 27.0158C25.8058 26.9516 25.9678 26.7559 25.9881 26.5241L27.6789 7.362C27.6924 7.20506 27.6401 7.04869 27.5332 6.93225C27.4269 6.81638 27.2762 6.75 27.1187 6.75H8.88187C8.72437 6.75 8.57362 6.81638 8.46731 6.93225C8.361 7.04869 8.30812 7.2045 8.32162 7.362L10.0119 26.5241C10.0322 26.7559 10.1936 26.9516 10.4181 27.0158ZM26.5044 7.875L24.9013 26.0404L18 28.0125L11.0981 26.0404L9.49612 7.875H26.5044Z" fill="url(#paint1_linear_105_91)"/>
<path d="M23.4343 13.2418L23.5721 11.5543C23.5856 11.3901 23.4562 11.25 23.292 11.25H12.7029C12.5404 11.25 12.4121 11.3872 12.4222 11.5492L12.8149 17.7368C12.8239 17.8847 12.9471 18 13.0956 18H20.3608C20.5234 18 20.6522 18.1378 20.6415 18.2998L20.4902 20.5841C20.4829 20.6972 20.4081 20.7951 20.3006 20.8316L18.0607 21.5966C18.0017 21.6169 17.9381 21.6169 17.8791 21.5966L15.6375 20.8311C15.5306 20.7945 15.4564 20.6983 15.4479 20.5858L15.3585 19.3854C15.3478 19.2386 15.2252 19.125 15.0778 19.125H13.194C13.0309 19.125 12.9021 19.2634 12.9133 19.4259L13.1237 22.4179C13.1316 22.5321 13.2081 22.6294 13.3161 22.6654L17.8807 24.1678C17.9381 24.1864 17.9994 24.1864 18.0568 24.1678L22.6204 22.6659C22.7295 22.6299 22.806 22.5309 22.8133 22.4162L23.211 16.0487C23.2211 15.8867 23.0929 15.75 22.9303 15.75H15.4147C15.2685 15.75 15.1464 15.6375 15.1346 15.4918L14.9968 13.8043C14.9839 13.6401 15.1127 13.5 15.2775 13.5H23.1542C23.3004 13.5 23.4225 13.3875 23.4343 13.2418Z" fill="url(#paint2_linear_105_91)"/>
<defs>
<linearGradient id="paint0_linear_105_91" x1="18.0518" y1="4.36838" x2="18.0518" y2="32.0996" gradientUnits="userSpaceOnUse">
<stop stop-color="#1A6DFF"/>
<stop offset="1" stop-color="#C822FF"/>
</linearGradient>
<linearGradient id="paint1_linear_105_91" x1="18.0006" y1="4.36837" x2="18.0006" y2="32.0996" gradientUnits="userSpaceOnUse">
<stop stop-color="#1A6DFF"/>
<stop offset="1" stop-color="#C822FF"/>
</linearGradient>
<linearGradient id="paint2_linear_105_91" x1="17.9972" y1="11.0109" x2="17.9972" y2="22.8521" gradientUnits="userSpaceOnUse">
<stop stop-color="#6DC7FF"/>
<stop offset="1" stop-color="#E6ABFF"/>
</linearGradient>
</defs>
</svg>
