<svg width="30" height="30" viewBox="0 0 30 30" fill="none" xmlns="http://www.w3.org/2000/svg">
<path d="M24.9919 3.90188C24.9033 3.80531 24.7777 3.75 24.6464 3.75H6.37735C5.9836 3.75 5.60579 3.91641 5.34001 4.20703C5.07423 4.49766 4.94157 4.88812 4.97673 5.28L6.53204 22.9111C6.58313 23.4872 6.99094 23.9803 7.54688 24.1392L14.6133 26.1586C14.7399 26.1942 14.8697 26.2125 14.9995 26.2125C15.1294 26.2125 15.2597 26.1942 15.3858 26.1586L22.4522 24.1392C23.0081 23.9803 23.4159 23.4867 23.467 22.9106L25.1128 4.26C25.125 4.12922 25.0809 3.99891 24.9919 3.90188ZM22.5338 22.8277C22.5164 23.0231 22.3838 23.1839 22.1953 23.2373L15.1289 25.2567C15.0445 25.2816 14.955 25.2816 14.8706 25.2567L7.80423 23.2373C7.61626 23.1839 7.48313 23.0231 7.46579 22.8281L5.91048 5.1975C5.89876 5.06484 5.94141 4.93781 6.03188 4.83984C6.12188 4.74141 6.24423 4.6875 6.37735 4.6875H24.1345L22.5338 22.8277Z" fill="url(#paint0_linear_105_91)"/>
<path d="M8.68171 22.5131L14.8716 24.2817C14.9137 24.2934 14.9569 24.2995 15 24.2995C15.0431 24.2995 15.0867 24.2934 15.1284 24.2817L21.3183 22.5131C21.5048 22.4597 21.6398 22.2966 21.6567 22.1034L23.0658 6.135C23.077 6.00422 23.0334 5.87391 22.9444 5.77688C22.8558 5.68031 22.7301 5.625 22.5989 5.625H7.40156C7.27031 5.625 7.14468 5.68031 7.05609 5.77688C6.96749 5.87391 6.92343 6.00375 6.93468 6.135L8.34327 22.1034C8.36015 22.2966 8.49468 22.4597 8.68171 22.5131ZM22.087 6.5625L20.7511 21.7003L15 23.3438L9.24843 21.7003L7.91343 6.5625H22.087Z" fill="url(#paint1_linear_105_91)"/>
<path d="M19.5286 11.0348L19.6434 9.62859C19.6547 9.49172 19.5469 9.375 19.41 9.375H10.5858C10.4503 9.375 10.3434 9.48937 10.3519 9.62437L10.6791 14.7806C10.6866 14.9039 10.7892 15 10.913 15H16.9673C17.1028 15 17.2102 15.1148 17.2013 15.2498L17.0752 17.1534C17.0691 17.2477 17.0067 17.3292 16.9172 17.3597L15.0506 17.9972C15.0014 18.0141 14.9484 18.0141 14.8992 17.9972L13.0313 17.3592C12.9422 17.3288 12.8803 17.2486 12.8733 17.1548L12.7988 16.1545C12.7898 16.0322 12.6877 15.9375 12.5648 15.9375H10.995C10.8591 15.9375 10.7517 16.0528 10.7611 16.1883L10.9364 18.6816C10.943 18.7767 11.0067 18.8578 11.0967 18.8878L14.9006 20.1398C14.9484 20.1553 14.9995 20.1553 15.0473 20.1398L18.8503 18.8883C18.9413 18.8583 19.005 18.7758 19.0111 18.6802L19.3425 13.3739C19.3509 13.2389 19.2441 13.125 19.1086 13.125H12.8456C12.7238 13.125 12.622 13.0313 12.6122 12.9098L12.4973 11.5036C12.4866 11.3667 12.5939 11.25 12.7313 11.25H19.2952C19.417 11.25 19.5188 11.1563 19.5286 11.0348Z" fill="url(#paint2_linear_105_91)"/>
<defs>
<linearGradient id="paint0_linear_105_91" x1="15.0431" y1="3.64031" x2="15.0431" y2="26.7497" gradientUnits="userSpaceOnUse">
<stop stop-color="#1A6DFF"/>
<stop offset="1" stop-color="#C822FF"/>
</linearGradient>
<linearGradient id="paint1_linear_105_91" x1="15.0005" y1="3.64031" x2="15.0005" y2="26.7497" gradientUnits="userSpaceOnUse">
<stop stop-color="#1A6DFF"/>
<stop offset="1" stop-color="#C822FF"/>
</linearGradient>
<linearGradient id="paint2_linear_105_91" x1="14.9977" y1="9.17578" x2="14.9977" y2="19.0434" gradientUnits="userSpaceOnUse">
<stop stop-color="#6DC7FF"/>
<stop offset="1" stop-color="#E6ABFF"/>
</linearGradient>
</defs>
</svg>
