<svg width="30" height="30" viewBox="0 0 30 30" fill="none" xmlns="http://www.w3.org/2000/svg">
<g clip-path="url(#clip0_105_59)">
<path d="M16.2 0C8.58571 0 2.39999 6.18572 2.39999 13.8C2.39999 21.4143 8.58571 27.6 16.2 27.6C23.8143 27.6 30 21.4143 30 13.8C30 12.1172 29.6973 10.5031 29.1445 9.01055C29.1092 8.9152 29.0501 8.8304 28.973 8.76412C28.8959 8.69784 28.8032 8.65224 28.7036 8.63162C28.604 8.611 28.5008 8.61603 28.4037 8.64624C28.3066 8.67644 28.2188 8.73083 28.1484 8.8043C27.6433 9.33229 27.0154 9.73665 26.3086 9.97031C26.1585 10.0197 26.034 10.1263 25.9621 10.2669C25.8901 10.4076 25.8765 10.5709 25.9242 10.7215C26.232 11.6936 26.4 12.7261 26.4 13.8C26.4 19.4403 21.8403 24 16.2 24C10.5597 24 5.99999 19.4403 5.99999 13.8C5.99999 8.15967 10.5597 3.6 16.2 3.6C17.5293 3.6 18.7945 3.86157 19.9617 4.32539C20.1084 4.38347 20.272 4.38148 20.4171 4.31986C20.5623 4.25823 20.6774 4.14192 20.7375 3.99609C21.0197 3.30949 21.467 2.70653 22.0301 2.23828C22.1082 2.17327 22.1686 2.08948 22.2055 1.99476C22.2424 1.90004 22.2546 1.7975 22.241 1.69676C22.2274 1.59602 22.1885 1.50038 22.1278 1.41882C22.0671 1.33726 21.9867 1.27245 21.8941 1.23047C20.1582 0.442777 18.2299 0 16.2 0ZM16.2 1.2C17.7488 1.2 19.2032 1.53599 20.5723 2.04727C20.3094 2.35859 20.0894 2.69794 19.8973 3.06094C18.7346 2.65851 17.5014 2.4 16.2 2.4C9.91112 2.4 4.79999 7.51113 4.79999 13.8C4.79999 20.0889 9.91112 25.2 16.2 25.2C22.4889 25.2 27.6 20.0889 27.6 13.8C27.6 12.7853 27.4009 11.8247 27.1512 10.8879C27.5423 10.7172 27.9089 10.5142 28.248 10.2645C28.5791 11.3911 28.8 12.5646 28.8 13.8C28.8 20.7657 23.1657 26.4 16.2 26.4C9.23427 26.4 3.59999 20.7657 3.59999 13.8C3.59999 6.83428 9.23427 1.2 16.2 1.2ZM24.9 2.4C23.0846 2.4 21.6 3.88457 21.6 5.7C21.6 7.51543 23.0846 9 24.9 9C26.7154 9 28.2 7.51543 28.2 5.7C28.2 3.88457 26.7154 2.4 24.9 2.4ZM24.9 3.6C26.0669 3.6 27 4.5331 27 5.7C27 6.8669 26.0669 7.8 24.9 7.8C23.7331 7.8 22.8 6.8669 22.8 5.7C22.8 4.5331 23.7331 3.6 24.9 3.6ZM16.2 7.8C12.8934 7.8 10.2 10.4934 10.2 13.8C10.2 17.1066 12.8934 19.8 16.2 19.8C19.5066 19.8 22.2 17.1066 22.2 13.8C22.2 10.4934 19.5066 7.8 16.2 7.8ZM16.2 9C18.8581 9 21 11.1419 21 13.8C21 16.4581 18.8581 18.6 16.2 18.6C13.5419 18.6 11.4 16.4581 11.4 13.8C11.4 11.1419 13.5419 9 16.2 9Z" fill="#4979D1"/>
</g>
<defs>
<clipPath id="clip0_105_59">
<rect width="30" height="30" fill="white"/>
</clipPath>
</defs>
</svg>
