<svg width="36" height="36" viewBox="0 0 36 36" fill="none" xmlns="http://www.w3.org/2000/svg">
<path d="M18 1.44C8.86287 1.44 1.44 8.86287 1.44 18C1.44 27.1371 8.86287 34.56 18 34.56C27.1371 34.56 34.56 27.1371 34.56 18C34.56 15.9806 34.1967 14.0438 33.5334 12.2527C33.491 12.1382 33.4202 12.0365 33.3276 11.9569C33.2351 11.8774 33.1238 11.8227 33.0043 11.798C32.8848 11.7732 32.761 11.7792 32.6444 11.8155C32.5279 11.8517 32.4225 11.917 32.3381 12.0052C31.7319 12.6387 30.9785 13.124 30.1303 13.4044C29.9503 13.4637 29.8008 13.5916 29.7145 13.7603C29.6281 13.9291 29.6118 14.1251 29.6691 14.3058C30.0384 15.4723 30.24 16.7113 30.24 18C30.24 24.7684 24.7684 30.24 18 30.24C11.2316 30.24 5.76 24.7684 5.76 18C5.76 11.2316 11.2316 5.76 18 5.76C19.5952 5.76 21.1134 6.07388 22.5141 6.63047C22.69 6.70017 22.8864 6.69778 23.0606 6.62383C23.2348 6.54988 23.3729 6.41031 23.445 6.23531C23.7836 5.41139 24.3204 4.68784 24.9961 4.12594C25.0899 4.04793 25.1623 3.94738 25.2066 3.83371C25.2508 3.72005 25.2655 3.597 25.2492 3.47611C25.2329 3.35522 25.1862 3.24046 25.1133 3.14259C25.0405 3.04471 24.9441 2.96694 24.833 2.91656C22.7499 1.97133 20.4359 1.44 18 1.44ZM18 2.88C19.8586 2.88 21.6039 3.28319 23.2467 3.89672C22.9313 4.27031 22.6673 4.67753 22.4367 5.11313C21.0415 4.63022 19.5617 4.32 18 4.32C10.4534 4.32 4.32 10.4534 4.32 18C4.32 25.5466 10.4534 31.68 18 31.68C25.5466 31.68 31.68 25.5466 31.68 18C31.68 16.7823 31.4411 15.6296 31.1414 14.5055C31.6108 14.3006 32.0507 14.0571 32.4577 13.7573C32.8549 15.1093 33.12 16.5175 33.12 18C33.12 26.3589 26.3589 33.12 18 33.12C9.64114 33.12 2.88 26.3589 2.88 18C2.88 9.64114 9.64114 2.88 18 2.88ZM28.44 4.32C26.2615 4.32 24.48 6.10148 24.48 8.28C24.48 10.4585 26.2615 12.24 28.44 12.24C30.6185 12.24 32.4 10.4585 32.4 8.28C32.4 6.10148 30.6185 4.32 28.44 4.32ZM28.44 5.76C29.8403 5.76 30.96 6.87972 30.96 8.28C30.96 9.68029 29.8403 10.8 28.44 10.8C27.0397 10.8 25.92 9.68029 25.92 8.28C25.92 6.87972 27.0397 5.76 28.44 5.76ZM18 10.8C14.0321 10.8 10.8 14.0321 10.8 18C10.8 21.9679 14.0321 25.2 18 25.2C21.9679 25.2 25.2 21.9679 25.2 18C25.2 14.0321 21.9679 10.8 18 10.8ZM18 12.24C21.1897 12.24 23.76 14.8103 23.76 18C23.76 21.1897 21.1897 23.76 18 23.76C14.8103 23.76 12.24 21.1897 12.24 18C12.24 14.8103 14.8103 12.24 18 12.24Z" fill="white"/>
</svg>
