<svg width="30" height="30" viewBox="0 0 30 30" fill="none" xmlns="http://www.w3.org/2000/svg">
<path d="M23.9062 3.75H6.09375C4.78125 3.75 3.75 4.78125 3.75 6.09375V23.9062C3.75 25.2188 4.78125 26.25 6.09375 26.25H23.9062C25.2188 26.25 26.25 25.2188 26.25 23.9062V6.09375C26.25 4.78125 25.2188 3.75 23.9062 3.75ZM25.3125 23.9062C25.3125 24.7031 24.7031 25.3125 23.9062 25.3125H6.09375C5.29688 25.3125 4.6875 24.7031 4.6875 23.9062V6.09375C4.6875 5.29688 5.29688 4.6875 6.09375 4.6875H23.9062C24.7031 4.6875 25.3125 5.29688 25.3125 6.09375V23.9062Z" fill="url(#paint0_linear_105_61)"/>
<path d="M21.8906 19.4531L21.5156 19.3125C20.8594 19.0313 20.5781 18.8438 20.5781 18.375C20.5781 18 20.8594 17.7187 21.2813 17.7187C21.6563 17.7187 21.8906 17.8594 22.125 18.1875C22.1719 18.2812 22.3125 18.3281 22.4531 18.2344L23.25 17.7187C23.3438 17.6719 23.3906 17.4844 23.3438 17.3906C22.875 16.6875 22.2188 16.4062 21.3281 16.4062C19.9688 16.4062 19.125 17.25 19.125 18.375C19.125 19.5938 19.8281 20.2031 20.9531 20.625L21.3281 20.7656C22.0313 21.0469 22.3594 21.2344 22.3594 21.75C22.3594 22.1719 22.0313 22.5 21.4219 22.5C20.7656 22.5 20.4375 22.125 20.1094 21.6562C20.0156 21.5625 19.875 21.5156 19.7813 21.6094L18.9844 22.125C18.8906 22.1719 18.8438 22.3125 18.8906 22.4531C19.3594 23.25 20.1094 23.8594 21.4219 23.8594C22.875 23.8594 23.9063 23.1094 23.9063 21.75C23.9063 20.5313 23.2031 19.9687 21.8906 19.4531Z" fill="url(#paint1_linear_105_61)"/>
<path d="M18.0469 16.4062H16.9687C16.8281 16.4062 16.7344 16.5 16.7344 16.6406V21.375C16.7344 22.125 16.4531 22.3125 15.9375 22.3125C15.5156 22.3125 15.1875 22.0781 14.9531 21.75C14.9062 21.6563 14.7656 21.6094 14.625 21.7031L13.7812 22.2188C13.6875 22.2656 13.6406 22.4531 13.6875 22.5469C14.1094 23.25 14.9062 23.9062 16.0312 23.9062C17.3906 23.9062 18.2812 23.2031 18.2812 21.6094V16.6406C18.2812 16.5 18.1875 16.4062 18.0469 16.4062Z" fill="url(#paint2_linear_105_61)"/>
<defs>
<linearGradient id="paint0_linear_105_61" x1="15" y1="4.23891" x2="15" y2="25.7864" gradientUnits="userSpaceOnUse">
<stop stop-color="#1A6DFF"/>
<stop offset="1" stop-color="#C822FF"/>
</linearGradient>
<linearGradient id="paint1_linear_105_61" x1="21.3647" y1="16.7255" x2="21.3647" y2="23.527" gradientUnits="userSpaceOnUse">
<stop stop-color="#6DC7FF"/>
<stop offset="1" stop-color="#E6ABFF"/>
</linearGradient>
<linearGradient id="paint2_linear_105_61" x1="15.9755" y1="16.7255" x2="15.9755" y2="23.527" gradientUnits="userSpaceOnUse">
<stop stop-color="#6DC7FF"/>
<stop offset="1" stop-color="#E6ABFF"/>
</linearGradient>
</defs>
</svg>
