<svg width="36" height="36" viewBox="0 0 36 36" fill="none" xmlns="http://www.w3.org/2000/svg">
<path d="M28.6875 4.5H7.3125C5.7375 4.5 4.5 5.7375 4.5 7.3125V28.6875C4.5 30.2625 5.7375 31.5 7.3125 31.5H28.6875C30.2625 31.5 31.5 30.2625 31.5 28.6875V7.3125C31.5 5.7375 30.2625 4.5 28.6875 4.5ZM30.375 28.6875C30.375 29.6438 29.6438 30.375 28.6875 30.375H7.3125C6.35625 30.375 5.625 29.6438 5.625 28.6875V7.3125C5.625 6.35625 6.35625 5.625 7.3125 5.625H28.6875C29.6438 5.625 30.375 6.35625 30.375 7.3125V28.6875Z" fill="url(#paint0_linear_105_61)"/>
<path d="M26.2688 23.3437L25.8188 23.175C25.0313 22.8375 24.6938 22.6125 24.6938 22.05C24.6938 21.6 25.0313 21.2625 25.5375 21.2625C25.9875 21.2625 26.2688 21.4312 26.55 21.825C26.6063 21.9375 26.775 21.9938 26.9438 21.8813L27.9 21.2625C28.0125 21.2062 28.0687 20.9812 28.0125 20.8687C27.45 20.025 26.6625 19.6875 25.5938 19.6875C23.9625 19.6875 22.95 20.7 22.95 22.05C22.95 23.5125 23.7938 24.2437 25.1438 24.75L25.5938 24.9187C26.4375 25.2562 26.8313 25.4813 26.8313 26.1C26.8313 26.6063 26.4375 27 25.7063 27C24.9188 27 24.525 26.55 24.1313 25.9875C24.0188 25.875 23.85 25.8187 23.7375 25.9312L22.7813 26.55C22.6688 26.6062 22.6125 26.775 22.6687 26.9438C23.2312 27.9 24.1313 28.6312 25.7063 28.6312C27.45 28.6312 28.6875 27.7313 28.6875 26.1C28.6875 24.6375 27.8438 23.9625 26.2688 23.3437Z" fill="url(#paint1_linear_105_61)"/>
<path d="M21.6563 19.6875H20.3625C20.1938 19.6875 20.0813 19.8 20.0813 19.9688V25.65C20.0813 26.55 19.7438 26.775 19.125 26.775C18.6188 26.775 18.225 26.4938 17.9438 26.1C17.8875 25.9875 17.7188 25.9312 17.55 26.0437L16.5375 26.6625C16.425 26.7188 16.3688 26.9437 16.425 27.0562C16.9313 27.9 17.8875 28.6875 19.2375 28.6875C20.8688 28.6875 21.9375 27.8437 21.9375 25.9312V19.9688C21.9375 19.8 21.825 19.6875 21.6563 19.6875Z" fill="url(#paint2_linear_105_61)"/>
<defs>
<linearGradient id="paint0_linear_105_61" x1="18" y1="5.08669" x2="18" y2="30.9437" gradientUnits="userSpaceOnUse">
<stop stop-color="#1A6DFF"/>
<stop offset="1" stop-color="#C822FF"/>
</linearGradient>
<linearGradient id="paint1_linear_105_61" x1="25.6376" y1="20.0706" x2="25.6376" y2="28.2324" gradientUnits="userSpaceOnUse">
<stop stop-color="#6DC7FF"/>
<stop offset="1" stop-color="#E6ABFF"/>
</linearGradient>
<linearGradient id="paint2_linear_105_61" x1="19.1706" y1="20.0706" x2="19.1706" y2="28.2324" gradientUnits="userSpaceOnUse">
<stop stop-color="#6DC7FF"/>
<stop offset="1" stop-color="#E6ABFF"/>
</linearGradient>
</defs>
</svg>
