<svg width="98" height="51" viewBox="0 0 98 51" fill="none" xmlns="http://www.w3.org/2000/svg">
<g style="mix-blend-mode:multiply" filter="url(#filter0_d_118_15)">
<path fill-rule="evenodd" clip-rule="evenodd" d="M15.77 2.08578C14.5969 1.97358 13.2248 2.20341 11.6536 2.77527C9.4397 3.58107 7.67936 4.85532 6.37259 6.59803C5.08963 8.33207 4.32404 10.3765 4.07583 12.7315C3.82762 15.0864 4.18873 17.5969 5.15916 20.2632C6.14691 22.977 7.45591 25.1291 9.08615 26.7194C10.4735 28.0461 12.0046 28.96 13.6795 29.4613V34.0551C13.6795 35.9991 13.4875 37.5471 13.1035 38.6991C12.7435 39.8751 12.1915 40.7151 11.4475 41.2191C10.7275 41.7231 9.82755 41.9871 8.74754 42.0111V42.6951C10.8355 42.6951 12.5275 42.1311 13.8235 41.0031C15.1435 39.8991 16.0075 38.5071 16.4155 36.8271C16.6075 36.0111 16.7395 35.0631 16.8115 33.9831C16.9075 32.9031 16.9675 31.7871 16.9915 30.6351C16.9967 30.3853 17.0014 30.1394 17.0055 29.8974C18.3633 29.8651 19.756 29.5892 21.1835 29.0696C21.7221 28.8736 22.2161 28.6627 22.6656 28.4371V30.1711C22.6656 30.7951 22.6136 31.2631 22.5096 31.5751C22.4056 31.8871 22.1976 32.0951 21.8856 32.1991C21.5909 32.3031 21.1489 32.3724 20.5596 32.4071V32.9271C20.9236 32.8924 21.4003 32.8751 21.9896 32.8751C22.5789 32.8577 23.1769 32.8491 23.7836 32.8491C24.1649 32.8491 24.5809 32.8577 25.0316 32.8751C25.4996 32.8751 25.9503 32.8837 26.3836 32.9011C26.8169 32.9184 27.1636 32.9271 27.4236 32.9271C29.4169 32.9271 31.1156 32.5371 32.5196 31.7571C33.9236 30.9771 34.9896 29.8851 35.7176 28.4811C35.9641 28.011 36.1698 27.5153 36.3348 26.9941L36.3347 27.0287C36.3347 27.9662 36.5457 28.8177 36.9675 29.5834C37.405 30.3334 37.9832 30.9349 38.7019 31.3881C39.4207 31.8412 40.2097 32.0677 41.0691 32.0677C41.7879 32.0677 42.4519 31.8959 43.0613 31.5521C43.6707 31.1927 44.1316 30.7943 44.4441 30.3568C44.5379 30.1849 44.5847 30.0443 44.5847 29.9349C44.5847 29.7318 44.5379 29.6302 44.4441 29.6302L44.28 29.7474C44.0769 29.9037 43.7488 30.0834 43.2957 30.2865C42.8582 30.474 42.3113 30.5677 41.655 30.5677C40.905 30.5677 40.2722 30.3724 39.7566 29.9818C39.241 29.5912 38.8504 29.099 38.5847 28.5052C38.3191 27.8959 38.1863 27.2631 38.1863 26.6068C38.1863 26.5287 38.2488 26.4896 38.3738 26.4896H44.28C44.5457 26.4896 44.7254 26.4584 44.8191 26.3959C44.9129 26.3177 44.9597 26.1224 44.9597 25.8099C44.9597 25.3724 44.8894 24.9349 44.7488 24.4974C44.6238 24.0443 44.4207 23.599 44.1394 23.1615C43.8425 22.7396 43.4207 22.3959 42.8738 22.1302C42.3269 21.849 41.6941 21.7084 40.9754 21.7084C40.1004 21.7084 39.3113 21.9271 38.6082 22.3646C37.905 22.7865 37.3504 23.3959 36.9441 24.1927C36.8929 24.2932 36.845 24.3959 36.8002 24.5011C36.8238 24.1798 36.8356 23.8511 36.8356 23.5151C36.8356 20.6204 36.0816 18.4017 34.5736 16.8591C33.0656 15.2991 30.7603 14.5191 27.6576 14.5191C27.1723 14.5191 26.5483 14.5277 25.7856 14.5451C25.0229 14.5624 24.3383 14.5797 23.7316 14.5971C23.1596 14.6144 22.5789 14.6144 21.9896 14.5971C21.4003 14.5624 20.9236 14.5364 20.5596 14.5191V15.0391C21.1489 15.0564 21.5909 15.1257 21.8856 15.2471C22.1976 15.3511 22.4056 15.5591 22.5096 15.8711C22.6136 16.1657 22.6656 16.6337 22.6656 17.2751V27.5755C22.1981 27.8429 21.7246 28.0639 21.245 28.2385C20.1023 28.6543 18.9357 28.7824 17.7453 28.6226C17.5035 28.583 17.2628 28.531 17.0234 28.4666C17.0261 28.1117 17.0275 27.7665 17.0275 27.4311V14.2551C17.0275 13.3671 17.0995 12.7191 17.2435 12.3111C17.3875 11.8791 17.6635 11.5911 18.0715 11.4471C18.5035 11.2791 19.1275 11.1831 19.9435 11.1591V10.4391C19.3915 10.4631 18.6955 10.4871 17.8555 10.5111C17.0395 10.5351 16.1875 10.5471 15.2995 10.5471C14.4115 10.5471 13.5595 10.5351 12.7435 10.5111C11.9275 10.4871 11.2675 10.4631 10.7635 10.4391V11.1591C11.5795 11.1831 12.1915 11.2791 12.5995 11.4471C13.0315 11.5911 13.3195 11.8791 13.4635 12.3111C13.6075 12.7191 13.6795 13.3671 13.6795 14.2551V26.6793C12.8158 25.9517 11.9965 25.032 11.2216 23.9202C10.2537 22.5202 9.40582 20.8203 8.678 18.8206C7.97618 16.8924 7.52221 15.0896 7.3161 13.4123C7.13379 11.7263 7.17664 10.2145 7.44462 8.87679C7.73642 7.53047 8.24255 6.40268 8.96302 5.49343C9.69863 4.55171 10.6497 3.86857 11.8161 3.44401C13.054 2.99346 14.3147 2.79071 15.5982 2.83579C16.873 2.85706 18.057 3.2214 19.1503 3.92883C19.6395 4.23603 20.0573 4.56922 20.4037 4.9284C20.7739 5.27892 21.1431 5.73766 21.5112 6.30462C21.8707 6.84777 22.32 7.60084 22.8592 8.56383L23.6805 8.2649C22.9267 6.19382 22.3321 4.5231 21.8966 3.25274C21.4612 1.98238 21.107 0.898134 20.8341 0L20.0128 0.298926C20.2901 1.35722 20.3499 2.07686 20.192 2.45783C20.0492 2.80634 19.6748 2.8887 19.0687 2.7049C18.0579 2.37189 16.9583 2.16551 15.77 2.08578ZM25.0836 26.6366C25.766 25.9086 26.3864 25.1444 26.9448 24.3441C27.3472 23.8202 27.7032 23.6502 28.0127 23.8341C28.3461 24.0093 28.7467 24.5914 29.2145 25.5804L30.0358 25.2815C29.6589 24.3942 29.2203 23.3002 28.7199 21.9996C28.2109 20.6752 27.5622 18.9298 26.7737 16.7635L25.9524 17.0624C26.3143 18.5752 26.5354 19.7753 26.6158 20.6626C26.7199 21.5413 26.6358 22.4212 26.3633 23.3022C26.1263 24.1874 25.6997 24.9788 25.0836 25.6765V17.2231C25.0836 16.3217 25.2049 15.7237 25.4476 15.4291C25.6903 15.1344 26.2103 14.9871 27.0076 14.9871C28.8103 14.9871 30.2316 15.3077 31.2716 15.9491C32.3289 16.5731 33.0829 17.5264 33.5336 18.8091C34.0016 20.0744 34.2356 21.6777 34.2356 23.6191C34.2356 25.5084 34.0276 27.1117 33.6116 28.4291C33.1956 29.7464 32.4676 30.7517 31.4276 31.4451C30.3876 32.1211 28.9229 32.4591 27.0336 32.4591C26.2363 32.4591 25.7076 32.3117 25.4476 32.0171C25.2049 31.7224 25.0836 31.1244 25.0836 30.2231V26.6366ZM42.9441 25.5052H38.3738C38.28 25.5052 38.2332 25.4506 38.2332 25.3412C38.2332 25.0287 38.3269 24.6615 38.5144 24.2396C38.7019 23.8021 38.9754 23.4193 39.3347 23.0912C39.6941 22.7474 40.1238 22.5756 40.6238 22.5756C41.1707 22.5756 41.6238 22.7318 41.9832 23.0443C42.3425 23.3568 42.6082 23.724 42.78 24.1459C42.9675 24.5521 43.0613 24.9271 43.0613 25.2709C43.0613 25.4271 43.0222 25.5052 42.9441 25.5052Z" fill="#54689A"/>
<path d="M50.4441 30.6381C50.741 31.3099 50.9519 31.7943 51.0769 32.0912C51.1238 32.1849 51.2566 32.1927 51.4754 32.1146C51.6941 32.0521 51.8582 31.8959 51.9675 31.6459L55.6941 23.2318C55.8191 22.9506 56.0613 22.7474 56.4207 22.6224C56.78 22.4974 57.0691 22.4349 57.2879 22.4349C57.3972 22.4349 57.4519 22.3256 57.4519 22.1068C57.4519 21.9974 57.4363 21.8802 57.405 21.7552L55.0613 21.8724C54.6863 21.8881 54.2644 21.8802 53.7957 21.849C53.3269 21.8021 53.0066 21.7709 52.8347 21.7552C52.7722 21.8177 52.741 21.9427 52.741 22.1302C52.741 22.3334 52.7722 22.4349 52.8347 22.4349C53.9597 22.4349 54.5222 22.6849 54.5222 23.1849C54.5222 23.2631 54.5066 23.3646 54.4754 23.4896C54.4597 23.599 54.4129 23.7318 54.3347 23.8881L51.9675 29.2787L49.2019 23.0209L49.155 22.9271C49.1394 22.8802 49.1316 22.849 49.1316 22.8334C49.1316 22.5677 49.5144 22.4349 50.28 22.4349C50.3269 22.4349 50.3582 22.3412 50.3738 22.1537C50.405 21.9506 50.405 21.8177 50.3738 21.7552C49.9832 21.7709 49.5925 21.7943 49.2019 21.8256C48.8113 21.8568 48.4207 21.8724 48.03 21.8724C47.6238 21.8724 47.2175 21.8568 46.8113 21.8256C46.405 21.7943 45.9988 21.7709 45.5925 21.7552C45.53 21.8177 45.4988 21.9427 45.4988 22.1302C45.4988 22.3334 45.53 22.4349 45.5925 22.4349C46.3425 22.4349 46.8035 22.5912 46.9754 22.9037C47.3191 23.5756 47.6863 24.3412 48.0769 25.2006C48.4675 26.0443 48.8894 26.9974 49.3425 28.0599C49.7957 29.1068 50.1629 29.9662 50.4441 30.6381Z" fill="#54689A"/>
<path fill-rule="evenodd" clip-rule="evenodd" d="M58.1316 24.2396C58.1316 26.4427 58.866 28.3099 60.3347 29.8412C61.3347 30.9037 62.4597 31.6068 63.7097 31.9506C64.9754 32.3099 66.241 32.3099 67.5066 31.9506C68.7722 31.6068 69.905 30.9037 70.905 29.8412C72.3738 28.3099 73.1082 26.4427 73.1082 24.2396C73.1082 23.1459 72.9129 22.1224 72.5222 21.1693C72.1316 20.2006 71.5925 19.3568 70.905 18.6381C70.2175 17.9037 69.4207 17.3334 68.5144 16.9271C67.6082 16.5052 66.6394 16.2943 65.6082 16.2943C64.5769 16.2943 63.6082 16.5052 62.7019 16.9271C61.7957 17.3334 60.9988 17.9037 60.3113 18.6381C59.6394 19.3568 59.1082 20.2006 58.7175 21.1693C58.3269 22.1224 58.1316 23.1459 58.1316 24.2396ZM68.6082 30.1693C67.8582 30.8256 66.9832 31.1537 65.9832 31.1537C64.8269 31.1537 63.8191 30.7865 62.9597 30.0521C62.1004 29.3021 61.4675 28.3724 61.0613 27.2631C60.655 26.1381 60.4519 24.9584 60.4519 23.724C60.4519 22.5834 60.6472 21.5287 61.0379 20.5599C61.4285 19.5756 61.9832 18.7865 62.7019 18.1927C63.4207 17.5834 64.2722 17.2787 65.2566 17.2787C66.4129 17.2787 67.4207 17.6459 68.28 18.3802C69.1394 19.1146 69.7722 20.0365 70.1785 21.1459C70.5847 22.2709 70.7879 23.4506 70.7879 24.6849C70.7879 25.7787 70.6082 26.8099 70.2488 27.7787C69.905 28.7318 69.3582 29.5287 68.6082 30.1693Z" fill="#54689A"/>
<path fill-rule="evenodd" clip-rule="evenodd" d="M74.5613 36.849C74.5613 37.0365 74.5925 37.1615 74.655 37.224L77.2097 37.1068L79.7175 37.224C79.7488 37.1615 79.7566 37.0287 79.741 36.8256C79.7254 36.6381 79.6941 36.5443 79.6472 36.5443C79.5535 36.5443 79.3972 36.5209 79.1785 36.474C78.9597 36.4271 78.7566 36.3646 78.5691 36.2865C78.3816 36.2084 78.2722 36.1381 78.241 36.0756C78.1785 35.8256 78.1316 35.5287 78.1004 35.1849C78.0691 34.8412 78.0535 34.4427 78.0535 33.9896V31.974C78.0535 31.8334 78.0847 31.7318 78.1472 31.6693C78.4754 31.8256 78.7644 31.9349 79.0144 31.9974C79.2644 32.0756 79.6316 32.1146 80.116 32.1146C80.7722 32.1146 81.405 31.9662 82.0144 31.6693C82.6394 31.3568 83.1941 30.9349 83.6785 30.4037C84.1629 29.8724 84.5457 29.2709 84.8269 28.599C85.1082 27.9115 85.2488 27.1927 85.2488 26.4427C85.2488 25.6927 85.0691 24.9584 84.7097 24.2396C84.366 23.5052 83.8347 22.9037 83.116 22.4349C82.4129 21.9506 81.53 21.7084 80.4675 21.7084C80.2332 21.7084 79.9519 21.7552 79.6238 21.849C79.3113 21.9427 79.0144 22.0521 78.7332 22.1771C78.4519 22.3021 78.2332 22.4193 78.0769 22.5287L78.1004 22.3881C78.116 22.2787 78.1316 22.1459 78.1472 21.9896C78.1629 21.8177 78.1316 21.7318 78.0535 21.7318L77.8894 21.7787C77.4207 21.9193 76.3582 22.1146 74.7019 22.3646C74.6082 22.3802 74.5613 22.5756 74.5613 22.9506C74.5613 22.9818 74.6394 23.0052 74.7957 23.0209C74.9675 23.0209 75.155 23.0521 75.3582 23.1146C75.5769 23.1771 75.7644 23.3021 75.9207 23.4896C76.1394 23.7396 76.2488 24.1615 76.2488 24.7552V34.4349C76.2488 34.7474 76.2332 35.0443 76.2019 35.3256C76.1863 35.6068 76.1472 35.8568 76.0847 36.0756C76.0691 36.1381 75.9675 36.2084 75.78 36.2865C75.5925 36.3646 75.3894 36.4271 75.1707 36.474C74.9519 36.5209 74.78 36.5443 74.655 36.5443C74.5925 36.5443 74.5613 36.6459 74.5613 36.849ZM81.8035 30.5677C81.366 30.9427 80.8347 31.1302 80.2097 31.1302C79.6785 31.1302 79.1863 30.9896 78.7332 30.7084C78.28 30.4115 78.0535 30.0521 78.0535 29.6302V24.3568C78.0535 23.8724 78.2097 23.5052 78.5222 23.2552C78.8347 22.9896 79.2332 22.8568 79.7175 22.8568C80.3582 22.8568 80.9441 23.0287 81.4754 23.3724C82.0066 23.7162 82.4285 24.2084 82.741 24.849C83.0691 25.474 83.2332 26.224 83.2332 27.099C83.2332 27.7865 83.1082 28.4427 82.8582 29.0677C82.6082 29.6771 82.2566 30.1771 81.8035 30.5677Z" fill="#54689A"/>
<path d="M88.9285 32.0209C89.3191 32.1302 89.7566 32.1849 90.241 32.1849C90.8972 32.1849 91.4988 32.0443 92.0457 31.7631C92.5925 31.4818 93.03 31.099 93.3582 30.6146C93.6863 30.1146 93.8504 29.5599 93.8504 28.9506C93.8504 28.2787 93.5222 27.6927 92.866 27.1927C92.4285 26.8646 91.8738 26.5131 91.2019 26.1381C90.5457 25.7631 89.9754 25.3881 89.491 25.0131C89.2879 24.8568 89.155 24.6927 89.0925 24.5209C89.0457 24.3334 89.0222 24.1224 89.0222 23.8881C89.0222 22.9662 89.5847 22.5052 90.7097 22.5052C91.1785 22.5052 91.5925 22.7006 91.9519 23.0912C92.3269 23.4818 92.5535 23.8959 92.6316 24.3334C92.6472 24.4427 92.7644 24.4974 92.9832 24.4974C93.1863 24.4974 93.2879 24.4584 93.2879 24.3802C93.2722 23.5052 93.1785 22.7084 93.0066 21.9896C92.8972 21.974 92.7566 21.9506 92.5847 21.9193C92.4129 21.8881 92.1941 21.849 91.9285 21.8021C91.6629 21.7709 91.4207 21.7474 91.2019 21.7318C90.9832 21.7006 90.7879 21.6849 90.616 21.6849C90.0222 21.6849 89.4597 21.8099 88.9285 22.0599C88.4129 22.2943 87.9988 22.6302 87.6863 23.0677C87.3738 23.4896 87.2175 23.9818 87.2175 24.5443C87.2175 25.5131 87.8269 26.349 89.0457 27.0521C89.3582 27.2396 89.616 27.3881 89.8191 27.4974C90.0379 27.5912 90.2566 27.7006 90.4754 27.8256C90.7097 27.9349 90.991 28.1224 91.3191 28.3881C91.741 28.7474 91.9519 29.2006 91.9519 29.7474C91.9519 30.2631 91.7879 30.6615 91.4597 30.9427C91.1472 31.2084 90.741 31.3412 90.241 31.3412C89.866 31.3412 89.4988 31.2396 89.1394 31.0365C88.78 30.8177 88.4754 30.5521 88.2254 30.2396C87.9754 29.9271 87.8191 29.6146 87.7566 29.3021C87.741 29.2084 87.616 29.1615 87.3816 29.1615C87.3191 29.1615 87.2254 29.2084 87.1004 29.3021C87.1004 29.5052 87.116 29.7709 87.1472 30.099C87.1941 30.4271 87.2488 30.7396 87.3113 31.0365C87.3738 31.3334 87.4363 31.5677 87.4988 31.7396C88.0613 31.8177 88.5379 31.9115 88.9285 32.0209Z" fill="#54689A"/>
</g>
<defs>
<filter id="filter0_d_118_15" x="0" y="0" width="97.8503" height="50.6951" filterUnits="userSpaceOnUse" color-interpolation-filters="sRGB">
<feFlood flood-opacity="0" result="BackgroundImageFix"/>
<feColorMatrix in="SourceAlpha" type="matrix" values="0 0 0 0 0 0 0 0 0 0 0 0 0 0 0 0 0 0 127 0" result="hardAlpha"/>
<feOffset dy="4"/>
<feGaussianBlur stdDeviation="2"/>
<feComposite in2="hardAlpha" operator="out"/>
<feColorMatrix type="matrix" values="0 0 0 0 0 0 0 0 0 0 0 0 0 0 0 0 0 0 0.25 0"/>
<feBlend mode="normal" in2="BackgroundImageFix" result="effect1_dropShadow_118_15"/>
<feBlend mode="normal" in="SourceGraphic" in2="effect1_dropShadow_118_15" result="shape"/>
</filter>
</defs>
</svg>
