<svg width="30" height="30" viewBox="0 0 30 30" fill="none" xmlns="http://www.w3.org/2000/svg">
<path d="M18.75 7.4875C18.75 15.175 11.25 17.5 11.25 17.5C11.25 17.5 3.75 15.175 3.75 7.4875C3.75 6.55 3.83333 5.7625 3.91667 5.125C4.04167 4.1875 4.75 3.4375 5.75 3.2125C7.04167 2.875 9.08333 2.5 11.25 2.5C13.4167 2.5 15.4583 2.875 16.7917 3.2125C17.7917 3.4375 18.5 4.225 18.625 5.125C18.6667 5.7625 18.75 6.5875 18.75 7.4875Z" fill="#5D4037"/>
<path d="M11.25 3.625C13.2917 3.625 15.2083 4 16.4583 4.3C16.9583 4.4125 17.2917 4.7875 17.375 5.275C17.4583 5.9875 17.5 6.7375 17.5 7.4875C17.5 13.3375 12.7083 15.7 11.25 16.2625C9.79167 15.6625 5 13.3 5 7.4875C5 6.7375 5.04167 5.9875 5.125 5.275C5.16667 4.7875 5.54167 4.4125 6.04167 4.3C7.29167 4 9.20833 3.625 11.25 3.625ZM11.25 2.5C9.08333 2.5 7.04167 2.875 5.70833 3.2125C4.75 3.4375 4 4.225 3.91667 5.125C3.83333 5.7625 3.75 6.5875 3.75 7.4875C3.75 15.175 11.25 17.5 11.25 17.5C11.25 17.5 18.75 15.175 18.75 7.4875C18.75 6.55 18.6667 5.7625 18.5833 5.125C18.4583 4.1875 17.75 3.4375 16.75 3.2125C15.4583 2.875 13.4167 2.5 11.25 2.5Z" fill="#4CAF50"/>
<path d="M14.375 17.5H15.625V22.5H14.375V17.5Z" fill="#DCEDC8"/>
<path d="M15 6.25C15 6.25 11.25 9.375 11.25 14.375C11.25 17.625 13.3125 19.6875 14.375 20.625L15 18.75L15.625 20.625C16.6875 19.6875 18.75 17.625 18.75 14.375C18.75 9.375 15 6.25 15 6.25Z" fill="#4CAF50"/>
<path d="M15 6.25C15 6.25 11.25 9.375 11.25 14.375C11.25 17.625 13.3125 19.6875 14.375 20.625L15 18.75V6.25Z" fill="#81C784"/>
</svg>
