<svg width="36" height="36" viewBox="0 0 36 36" fill="none" xmlns="http://www.w3.org/2000/svg">
<g clip-path="url(#clip0_130_22)">
<path d="M12.903 14.3415L9.22275 16.3777C9.08475 16.4535 9 16.5945 9 16.7467V20.8215C9 20.9737 9.08475 21.114 9.22275 21.1905L12.9037 23.2282C13.041 23.304 13.2112 23.304 13.3485 23.2282L17.0287 21.1905C17.1652 21.114 17.25 20.9737 17.25 20.8215V16.7467C17.25 16.5945 17.1652 16.4542 17.0272 16.3777L13.3478 14.3415C13.2788 14.3032 13.2015 14.2845 13.125 14.2845C13.0477 14.2845 12.9712 14.3032 12.9022 14.3415M31.8382 18.0097L31.2247 18.3487C31.2015 18.3615 31.188 18.3847 31.188 18.4102V19.0897C31.188 19.1152 31.2022 19.1385 31.2247 19.1512L31.8382 19.491C31.8615 19.5037 31.8892 19.5037 31.9125 19.491L32.526 19.1512C32.5485 19.1385 32.5627 19.1152 32.5627 19.0897V18.4102C32.5627 18.3847 32.5485 18.3615 32.5252 18.3487L31.9117 18.0097C31.9005 18.003 31.8877 18 31.875 18C31.8622 18 31.8495 18.003 31.8382 18.0097Z" fill="#388E3C"/>
<path d="M26.8132 10.023L25.0215 9.02326C24.9652 8.99176 24.8962 8.99251 24.8407 9.02551C24.7852 9.05851 24.7507 9.11776 24.7507 9.18226L24.75 15.2213L23.0978 14.307C23.0288 14.2688 22.9515 14.25 22.875 14.25C22.7985 14.25 22.7212 14.2688 22.6522 14.307H22.653L18.9728 16.3433C18.8348 16.419 18.75 16.56 18.75 16.7115V20.7863C18.75 20.9385 18.8348 21.0788 18.9728 21.1553L22.6537 23.193C22.791 23.2688 22.9613 23.2688 23.0985 23.193L26.7788 21.1553C26.9153 21.0795 27 20.9385 27 20.7863V10.341C27 10.209 26.928 10.0875 26.8132 10.023ZM24.6495 19.8435L22.977 20.7698C22.9147 20.8043 22.8375 20.8043 22.7753 20.7698L21.102 19.8435C21.0382 19.809 21 19.7445 21 19.6755V17.823C21 17.754 21.0383 17.6903 21.1013 17.655L22.7745 16.7295C22.806 16.7123 22.8398 16.704 22.875 16.704C22.9102 16.704 22.9448 16.713 22.9763 16.7295L24.6488 17.655C24.7118 17.6903 24.75 17.7548 24.75 17.8238V19.6763C24.75 19.7445 24.7118 19.809 24.6495 19.8435Z" fill="white"/>
<path d="M12.903 14.3415L9 20.8215C9 20.9737 9.08475 21.114 9.22275 21.1905L12.9037 23.2282C13.041 23.304 13.2113 23.304 13.3485 23.2282L17.25 16.7467C17.25 16.5945 17.1652 16.4542 17.0272 16.3777L13.3478 14.3415C13.2788 14.3032 13.2015 14.2845 13.125 14.2845C13.0477 14.2845 12.9712 14.3032 12.9022 14.3415" fill="#2E7D32"/>
<path d="M12.903 14.3415L9.22275 16.3777C9.08475 16.4535 9 16.5945 9 16.7467L12.903 23.2282C13.0403 23.304 13.2105 23.304 13.3478 23.2282L17.028 21.1905C17.1653 21.114 17.25 20.9737 17.25 20.8215L13.3478 14.3415C13.2788 14.3032 13.2015 14.2845 13.125 14.2845C13.0477 14.2845 12.9712 14.3032 12.9022 14.3415" fill="#4CAF50"/>
<path d="M35.7772 16.3433L32.0978 14.307C32.0288 14.2688 31.9515 14.25 31.875 14.25C31.7985 14.25 31.7212 14.2688 31.6522 14.307L27.9728 16.3433C27.8355 16.419 27.75 16.563 27.75 16.7205V20.7787C27.75 20.9355 27.8355 21.0803 27.9728 21.156L31.6538 23.1937C31.7918 23.2702 31.9605 23.2702 32.0985 23.1937L33.7958 22.254C33.951 22.1678 33.9502 21.945 33.7942 21.8595L30.1012 19.8442C30.039 19.809 30 19.7438 30 19.6733V17.8237C30 17.7547 30.0375 17.691 30.0975 17.658L31.7738 16.731H31.773C31.8045 16.7138 31.839 16.7055 31.8743 16.7055C31.9095 16.7055 31.944 16.7145 31.9755 16.731L33.6517 17.6588C33.7117 17.6918 33.7493 17.7555 33.7493 17.8245V19.3335C33.7493 19.398 33.7837 19.458 33.84 19.4902C33.8962 19.5217 33.9652 19.5218 34.0215 19.4895L35.82 18.4448C35.931 18.3803 36 18.261 36 18.132V16.722C36 16.5637 35.9145 16.419 35.7772 16.3433ZM8.02725 16.3433L4.34775 14.307C4.27875 14.2688 4.2015 14.25 4.125 14.25C4.0485 14.25 3.97125 14.2688 3.90225 14.307L0.22275 16.3433C0.0855 16.419 0 16.563 0 16.7205V22.3193C0 22.3838 0.0345 22.4438 0.09075 22.476C0.147 22.5075 0.216 22.5075 0.27225 22.4752L2.07075 21.4305C2.18175 21.366 2.25 21.2467 2.25 21.1177V17.823C2.25 17.754 2.2875 17.6902 2.3475 17.6572L4.02375 16.7302C4.05525 16.713 4.08975 16.7048 4.125 16.7048C4.16025 16.7048 4.19475 16.7137 4.22625 16.7302L5.9025 17.658C5.9625 17.691 6 17.7547 6 17.8237V21.1185C6 21.2475 6.06825 21.3668 6.18 21.4313L7.9785 22.476C8.03475 22.5083 8.10375 22.5082 8.16 22.4767C8.2155 22.4437 8.25 22.3838 8.25 22.3193V16.7213C8.25 16.5638 8.1645 16.419 8.02725 16.3433Z" fill="white"/>
</g>
<defs>
<clipPath id="clip0_130_22">
<rect width="36" height="36" fill="white"/>
</clipPath>
</defs>
</svg>
