<svg width="30" height="30" viewBox="0 0 30 30" fill="none" xmlns="http://www.w3.org/2000/svg">
<path d="M15 21.675C6.4485 21.675 0 18.8775 0 15C0 11.1225 6.4485 8.25 15 8.25C23.5515 8.25 30 11.1225 30 15C30 18.8775 23.5515 21.675 15 21.675ZM15 10.449C7.70325 10.449 2.15625 12.8985 2.15625 15.0472C2.15625 17.196 7.70325 19.551 15 19.551C22.2967 19.551 27.8438 17.1015 27.8438 14.9528C27.8438 12.804 22.2967 10.449 15 10.449Z" fill="#4E7AB5"/>
<path d="M9.3015 28.5C8.60325 28.5 7.96575 28.338 7.4055 28.0185C6.4905 27.4957 5.83425 26.5725 5.5065 25.347C4.647 22.1355 6.03375 16.7355 9.04125 11.589C12.57 5.55524 17.2553 1.50224 20.6993 1.50224C21.3968 1.50224 22.0343 1.66424 22.5945 1.98374C23.508 2.50499 24.165 3.42749 24.4928 4.65224C25.353 7.86374 23.9655 13.2645 20.9565 18.411C17.4308 24.4455 12.7463 28.5 9.3015 28.5ZM20.6993 3.75224C18.5333 3.75224 14.3925 6.89699 10.9838 12.7245C7.8915 18.0165 6.98475 22.4062 7.68075 24.765C7.869 25.4017 8.1345 25.8435 8.5215 26.064C10.2923 27.075 15.1283 23.9265 19.0148 17.2762C22.1085 11.9835 23.1098 7.68749 22.3193 5.23499C22.116 4.60424 21.8663 4.15874 21.48 3.93899C21.2603 3.81299 21.0045 3.75224 20.6993 3.75224Z" fill="#4E7AB5"/>
<path d="M20.6993 28.4978C17.2515 28.497 12.567 24.444 9.04125 18.411C6.03375 13.2645 4.647 7.86375 5.5065 4.653C5.83425 3.4275 6.4905 2.50425 7.40475 1.98225C7.96575 1.662 8.60325 1.5 9.3 1.5C12.7463 1.5 17.43 5.5545 20.9565 11.589C23.9648 16.7347 25.3515 22.1355 24.492 25.3478C24.1635 26.5725 23.5073 27.495 22.5945 28.0163C22.0343 28.3358 21.396 28.4978 20.6993 28.4978ZM9.3 3.75C8.99475 3.75 8.73975 3.8115 8.52 3.936C8.13375 4.1565 7.8645 4.59675 7.68 5.235C6.984 7.641 7.89075 11.9843 10.983 17.2762C14.3888 23.103 18.5303 26.2478 20.6985 26.2478C21.0045 26.2478 21.2595 26.1863 21.4793 26.061C21.8648 25.842 22.1415 25.404 22.3178 24.765C22.968 22.4055 22.107 18.015 19.014 12.7238C15.6083 6.8955 11.4675 3.75 9.3 3.75Z" fill="#4E7AB5"/>
<path d="M17.625 15C17.625 16.4513 16.4513 17.625 15 17.625C13.5488 17.625 12.375 16.4513 12.375 15C12.375 13.5488 13.5488 12.375 15 12.375C16.4513 12.375 17.625 13.5488 17.625 15Z" fill="#8BB7F0"/>
<path d="M15 18C13.3455 18 12 16.6545 12 15C12 13.3455 13.3455 12 15 12C16.6545 12 18 13.3455 18 15C18 16.6545 16.6545 18 15 18ZM15 12.75C13.7595 12.75 12.75 13.7595 12.75 15C12.75 16.2405 13.7595 17.25 15 17.25C16.2405 17.25 17.25 16.2405 17.25 15C17.25 13.7595 16.2405 12.75 15 12.75Z" fill="#4E7AB5"/>
<path d="M15 21.051C7.0095 21.051 0.75 18.393 0.75 15C0.75 11.607 7.0095 8.94901 15 8.94901C22.9905 8.94901 29.25 11.607 29.25 15C29.25 18.393 22.9905 21.051 15 21.051ZM15 9.69901C7.68225 9.69901 1.5 12.1268 1.5 15C1.5 17.8733 7.68225 20.301 15 20.301C22.3177 20.301 28.5 17.874 28.5 15C28.5 12.126 22.3177 9.69901 15 9.69901Z" fill="#8BB7F0"/>
<path d="M9.30149 27.75C8.73524 27.75 8.22299 27.621 7.77674 27.3667C7.02974 26.94 6.50999 26.1952 6.23024 25.1527C5.41949 22.125 6.77699 16.9492 9.68774 11.967C13.0342 6.24749 17.562 2.25224 20.6992 2.25224C21.2647 2.25224 21.7777 2.38124 22.2232 2.63549C22.9695 3.06149 23.4892 3.80549 23.769 4.84649C24.5797 7.87424 23.2222 13.05 20.31 18.033C16.9657 23.754 12.4395 27.75 9.30149 27.75ZM20.6992 3.00224C17.8612 3.00224 13.503 6.93149 10.3365 12.3457C7.56524 17.0895 6.20624 22.158 6.95549 24.9592C7.18124 25.8015 7.58249 26.3917 8.14949 26.7157C8.48024 26.904 8.86724 27 9.30074 27C12.1395 27 16.497 23.07 19.6612 17.6542C22.434 12.9097 23.7937 7.84049 23.043 5.04074C22.818 4.19999 22.4167 3.60974 21.8505 3.28724C21.5197 3.09824 21.1327 3.00224 20.6992 3.00224Z" fill="#8BB7F0"/>
<path d="M20.6993 27.7478C17.559 27.747 13.0313 23.7525 9.68851 18.033C6.77701 13.0508 5.42026 7.875 6.23101 4.84725C6.51001 3.80475 7.02976 3.06 7.77751 2.63325C8.22301 2.379 8.73526 2.25 9.30001 2.25C12.4388 2.25 16.9658 6.246 20.3093 11.967C23.2215 16.9485 24.5783 22.1243 23.7668 25.1535C23.4885 26.1953 22.9688 26.9393 22.2225 27.3645C21.777 27.6188 21.2648 27.7478 20.6993 27.7478ZM9.30001 3C8.86726 3 8.47951 3.096 8.14876 3.28425C7.58176 3.60825 7.18051 4.1985 6.95476 5.04075C6.20551 7.84125 7.56451 12.9105 10.3358 17.6543C13.5 23.0678 17.859 26.997 20.6993 26.9978C21.1328 26.9978 21.5205 26.9018 21.8513 26.7128C22.4168 26.3903 22.818 25.8 23.043 24.9593C23.793 22.158 22.434 17.0888 19.662 12.3458C16.497 6.93075 12.1403 3 9.30001 3Z" fill="#8BB7F0"/>
</svg>
