<svg width="30" height="30" viewBox="0 0 30 30" fill="none" xmlns="http://www.w3.org/2000/svg">
<g clip-path="url(#clip0_105_85)">
<path d="M15 6.0025C11 6.0025 8.5 8.00188 7.5 12.0006C9 10.0013 10.75 9.25188 12.75 9.75125C13.8912 10.0363 14.7069 10.8644 15.61 11.7806C17.08 13.2725 18.7819 15 22.5 15C26.5 15 29 13.0006 30 9.00125C28.5 11.0006 26.75 11.7506 24.75 11.2513C23.6094 10.9663 22.7938 10.1381 21.8906 9.22188C20.42 7.72938 18.7175 6.0025 15 6.0025ZM7.5 15C3.5 15 1 16.9994 0 20.9988C1.5 18.9994 3.25 18.2494 5.25 18.7494C6.39062 19.035 7.20625 19.8625 8.10938 20.7781C9.58 22.2706 11.2825 23.9981 15 23.9981C19 23.9981 21.5 21.9988 22.5 17.9994C21 19.9988 19.25 20.7488 17.25 20.2488C16.1087 19.9638 15.2931 19.1356 14.39 18.22C12.92 16.7275 11.2181 15 7.5 15Z" fill="#00ACC1"/>
</g>
<defs>
<clipPath id="clip0_105_85">
<rect width="30" height="30" fill="white"/>
</clipPath>
</defs>
</svg>
