<svg width="36" height="36" viewBox="0 0 36 36" fill="none" xmlns="http://www.w3.org/2000/svg">
<path d="M11.4497 23.3196C10.9817 22.8448 10.4062 22.2373 9.79369 21.7339C9.16087 21.2136 8.379 20.7084 7.40644 20.4649C7.22025 20.4193 7.03519 20.3799 6.85125 20.3496L6.34669 20.2866L6.47212 20.2281C7.31644 19.8821 8.33456 19.692 9.56306 19.692C13.0348 19.692 14.5305 21.2057 16.1122 22.8122C16.5915 23.2976 17.1697 23.9012 17.7958 24.4074C18.4371 24.9255 19.2246 25.4261 20.1915 25.6674C20.3766 25.7141 20.5611 25.7529 20.745 25.7839L21.2214 25.8441L21.0904 25.9048C20.2466 26.2496 19.2279 26.4398 18.0011 26.4398C14.5288 26.4386 13.0326 24.9261 11.4497 23.3196Z" fill="url(#paint0_linear_133_38)"/>
<path d="M19.8866 13.1934C19.4186 12.7187 18.8432 12.1112 18.2306 11.6077C17.5978 11.0874 16.8159 10.5823 15.8434 10.3387C15.6572 10.2932 15.4721 10.2538 15.2882 10.2234L14.7836 10.1604L14.9091 10.1019C15.7534 9.756 16.7715 9.56587 18 9.56587C21.4717 9.56587 22.9674 11.0796 24.5492 12.6861C25.0284 13.1715 25.6067 13.7751 26.2328 14.2813C26.874 14.7994 27.6615 15.3 28.6284 15.5413C28.8135 15.588 28.998 15.6268 29.1819 15.6577L29.6584 15.7179L29.5273 15.7787C28.6836 16.1235 27.6649 16.3136 26.4381 16.3136C22.9652 16.3131 21.4689 14.7999 19.8866 13.1934Z" fill="url(#paint1_linear_133_38)"/>
<path d="M9.84881 24.8968C8.78456 23.8196 7.95488 22.9196 6.86025 22.6451C4.90106 22.1552 3.1815 22.9489 1.57556 25.0886C1.20938 25.5763 0.432563 25.2056 0.580501 24.6144C1.76625 19.872 4.797 17.4392 9.56306 17.4392C13.9826 17.4392 16.038 19.5272 17.7148 21.2299C18.7718 22.3014 19.6391 23.2076 20.7366 23.4821C22.6946 23.9709 24.381 23.1812 25.9881 21.0386C26.3543 20.5509 27.1311 20.9216 26.9831 21.5128C25.7974 26.2553 22.7666 28.6864 18.0006 28.6864C13.5804 28.6864 11.5251 26.5989 9.84881 24.8968ZM25.0099 23.6334L24.7444 23.8247C23.4692 24.6769 22.0489 24.9699 20.4643 24.5734C18.9934 24.2061 17.8886 23.0091 16.9133 22.0196C15.2837 20.3642 13.5084 18.5642 9.56306 18.5642C6.39056 18.5642 4.13663 19.7269 2.75906 22.1034L2.54756 22.5039L2.8305 22.302C4.11694 21.4498 5.55019 21.1573 7.13419 21.5533C8.60569 21.9223 9.68119 23.1255 10.6492 24.1065C12.2799 25.7619 14.0557 27.5608 18.0006 27.5608C21.1725 27.5608 23.427 26.3998 24.8046 24.0238L25.0099 23.6334Z" fill="url(#paint2_linear_133_38)"/>
<path d="M18.2852 14.7707C17.2209 13.6935 16.3912 12.7935 15.2966 12.519C13.3374 12.0291 11.6179 12.8228 10.0119 14.9625C9.64575 15.4502 8.86894 15.0795 9.01688 14.4883C10.2026 9.74588 13.2334 7.31306 17.9994 7.31306C22.419 7.31306 24.4744 9.40106 26.1512 11.1038C27.2081 12.1753 28.0755 13.0815 29.1729 13.356C31.131 13.8448 32.8174 13.0551 34.4244 10.9125C34.7906 10.4248 35.5674 10.7955 35.4195 11.3867C34.2337 16.1291 31.203 18.5603 26.4369 18.5603C22.0174 18.5608 19.9614 16.4734 18.2852 14.7707ZM33.4468 13.5079L33.1813 13.6991C31.9061 14.5513 30.4858 14.8444 28.9012 14.4478C27.4303 14.0805 26.3256 12.8835 25.3502 11.8941C23.7206 10.2386 21.9454 8.43863 18 8.43863C14.8275 8.43863 12.5736 9.60131 11.196 11.9779L10.9845 12.3784L11.2674 12.1764C12.5539 11.3243 13.9871 11.0318 15.5711 11.4278C17.0426 11.7968 18.1181 12.9999 19.0862 13.9809C20.7169 15.6364 22.4927 17.4353 26.4375 17.4353C29.6094 17.4353 31.8639 16.2743 33.2415 13.8983L33.4468 13.5079Z" fill="url(#paint3_linear_133_38)"/>
<defs>
<linearGradient id="paint0_linear_133_38" x1="13.7841" y1="17.2226" x2="13.7841" y2="28.017" gradientUnits="userSpaceOnUse">
<stop stop-color="#6DC7FF"/>
<stop offset="1" stop-color="#EAABFF"/>
</linearGradient>
<linearGradient id="paint1_linear_133_38" x1="22.2204" y1="7.0965" x2="22.2204" y2="17.8914" gradientUnits="userSpaceOnUse">
<stop stop-color="#6DC7FF"/>
<stop offset="1" stop-color="#EAABFF"/>
</linearGradient>
<linearGradient id="paint2_linear_133_38" x1="13.7818" y1="7.95994" x2="13.7818" y2="28.5694" gradientUnits="userSpaceOnUse">
<stop stop-color="#1A6DFF"/>
<stop offset="1" stop-color="#C822FF"/>
</linearGradient>
<linearGradient id="paint3_linear_133_38" x1="22.2182" y1="7.95994" x2="22.2182" y2="28.5694" gradientUnits="userSpaceOnUse">
<stop stop-color="#1A6DFF"/>
<stop offset="1" stop-color="#C822FF"/>
</linearGradient>
</defs>
</svg>
